<?xml version="1.0" encoding="UTF-8" standalone="no"?>
<svg
   xmlns:dc="http://purl.org/dc/elements/1.1/"
   xmlns:cc="http://creativecommons.org/ns#"
   xmlns:rdf="http://www.w3.org/1999/02/22-rdf-syntax-ns#"
   xmlns:svg="http://www.w3.org/2000/svg"
   xmlns="http://www.w3.org/2000/svg"
   xmlns:xlink="http://www.w3.org/1999/xlink"
   xmlns:sodipodi="http://sodipodi.sourceforge.net/DTD/sodipodi-0.dtd"
   xmlns:inkscape="http://www.inkscape.org/namespaces/inkscape"
   id="svg2"
   viewBox="0 0 799.99998 799.99997"
   version="1.1"
   sodipodi:docname="carp_icon.svg"
   width="800"
   height="800"
   inkscape:version="0.92.2 5c3e80d, 2017-08-06">
  <title
     id="title1381">Carp icon</title>
  <defs
     id="defs4894" />
  <sodipodi:namedview
     pagecolor="#ffffff"
     bordercolor="#666666"
     borderopacity="1"
     objecttolerance="10"
     gridtolerance="10"
     guidetolerance="10"
     inkscape:pageopacity="0"
     inkscape:pageshadow="2"
     inkscape:window-width="1920"
     inkscape:window-height="1053"
     id="namedview4892"
     showgrid="false"
     fit-margin-top="0"
     fit-margin-left="0"
     fit-margin-right="0"
     fit-margin-bottom="0"
     inkscape:zoom="0.65134012"
     inkscape:cx="202.45045"
     inkscape:cy="382.67786"
     inkscape:window-x="0"
     inkscape:window-y="27"
     inkscape:window-maximized="1"
     inkscape:current-layer="svg2"
     showborder="true" />
  <g
     id="g11467"
     transform="translate(14.657999,1178.5299)">
    <g
       id="g12099">
      <g
         id="g4527">
        <path
           id="path11785"
           d="m 690.93,-932.53 c -32.122,37.423 -75.123,65.742 -123.16,77.906 -31.059,7.9987 -63.32,11.674 -95.438,11.125 -50.683,-3.2649 -94.79,-30.868 -139.43,-52.566 -34.337,-17.334 -70.965,-31.737 -109.92,-32.403 -44.774,-1.7119 -90.213,1.2252 -133.46,13.222 -12.112,3.8419 -25.572,7.7931 -32.823,19.059 -17.687,24.376 -20.359,55.874 -21.344,85.281 -0.21373,30.472 2.103,43.863 14.804,71.899 3.0752,6.1037 6.9729,12.384 13.303,15.512 0.83715,3.1188 6.563,1.9757 9.75,2.0625 10.173,-1.2265 18.022,-9.149 27.625,-12.25 53.121,-3.4575 106.62,-1.4602 159.45,7.7304 48.254,8.3858 93.067,29.218 137.97,48.11 34.723,14.709 72.571,24.434 110.52,19.849 77.695,-7.0024 156.15,-33.22 214.35,-86.444 8.2324,-7.5616 15.949,-15.639 23.281,-24.094 -32.968,-11.221 -65.938,-22.437 -98.906,-33.656 15.661,-43.455 31.967,-86.72 47.224,-130.29 2.5359,-8.0163 -0.39684,-2.1736 -3.8182,-0.0497 z"
           inkscape:connector-curvature="0"
           style="fill:#f2f2f2" />
        <path
           id="path11789"
           transform="matrix(1.2222,0,0,1.0192,52.32,-741.3)"
           d="m 39.396,-70.927 a 22.7285,78.793733 0 1 1 -45.457,0 22.7285,78.793733 0 1 1 45.457,0 z"
           inkscape:connector-curvature="0"
           style="fill:#cccccc" />
        <g
           id="g11793"
           transform="translate(0,-1074.3)">
          <path
             id="path11795"
             d="m 669.61,174.94 c -42.881,37.852 -98.972,58.993 -155.83,63.222 23.867,83.667 20.13,82.808 -2.9466,166.97 75.321,-7.4822 151.15,-33.81 206.94,-86.5 1.7223,-2.8861 10.9,-7.7878 7.1378,-9.6129 -30.755,-10.461 -61.507,-20.93 -92.263,-31.387 12.619,-34.441 25.182,-68.904 37.719,-103.38 l -0.73715,0.67572 -0.0128,0.0118 z"
             inkscape:connector-curvature="0"
             style="fill:#4d4d4d" />
          <path
             id="path11797"
             d="m 546.43,257.36 c 43.412,0 96.429,-51.429 96.429,-51.429 0,0 -57.232,70.714 -97.857,70.714 -14.286,0 -12.857,-19.286 1.4286,-19.286 z"
             inkscape:connector-curvature="0"
             style="fill:#ffffff" />
          <path
             id="path11799"
             d="m 562.89,347.42 c 39.44,18.14 109.1,-6.4292 109.1,-6.4292 0,0 -81.545,40.329 -118.45,23.354 -12.979,-5.9695 -3.622,-22.894 9.3567,-16.924 z"
             inkscape:connector-curvature="0"
             style="fill:#ffffff" />
          <path
             id="path11801"
             d="m 538.6,328.85 c 39.44,18.14 109.1,-6.4292 109.1,-6.4292 0,0 -81.545,40.329 -118.45,23.354 -12.979,-5.9695 -3.622,-22.894 9.3567,-16.924 z"
             inkscape:connector-curvature="0"
             style="fill:#ffffff" />
          <path
             id="path11803"
             d="m 530.19,316.33 c 41.438,12.942 107.38,-20.342 107.38,-20.342 0,0 -75.712,50.436 -114.49,38.325 -13.636,-4.259 -6.5228,-22.242 7.1132,-17.983 z"
             inkscape:connector-curvature="0"
             style="fill:#ffffff" />
          <path
             id="path11805"
             d="m 531.43,293.08 c 43.412,0 96.429,-51.429 96.429,-51.429 0,0 -57.232,70.714 -97.857,70.714 -14.286,0 -12.857,-19.286 1.4286,-19.286 z"
             inkscape:connector-curvature="0"
             style="fill:#ffffff" />
          <path
             id="path11807"
             d="m 530.39,310.02 c 43.302,3.0852 99.84,-44.446 99.84,-44.446 0,0 -62.113,66.468 -102.64,63.581 -14.25,-1.0152 -11.454,-20.151 2.7955,-19.135 z"
             inkscape:connector-curvature="0"
             style="fill:#ffffff" />
        </g>
        <g
           id="g11811"
           transform="translate(0,-1074.3)">
          <g
             id="g11813"
             transform="translate(0,2.7085)">
            <g
               id="g11815"
               transform="matrix(0.46848,0,0,0.46848,474.39,92.24)">
              <path
                 id="path11817"
                 transform="matrix(1.1994,0,0,1.1994,-36.458,-82.218)"
                 d="m 240,412.36 a 57.145,57.145 0 1 1 -114.29,0 57.145,57.145 0 1 1 114.29,0 z"
                 inkscape:connector-curvature="0" />
              <path
                 id="path11819"
                 transform="matrix(1.1556,0,0,1.1556,-28.45,-64.157)"
                 d="m 240,412.36 a 57.145,57.145 0 1 1 -114.29,0 57.145,57.145 0 1 1 114.29,0 z"
                 inkscape:connector-curvature="0"
                 style="fill:#ffffff" />
              <path
                 id="path11821"
                 transform="matrix(1.0088,0,0,1.0088,-1.6112,-3.6335)"
                 d="m 240,412.36 a 57.145,57.145 0 1 1 -114.29,0 57.145,57.145 0 1 1 114.29,0 z"
                 inkscape:connector-curvature="0"
                 style="fill:#4d4d4d" />
            </g>
            <g
               id="g11823"
               transform="matrix(0.46848,0,0,0.46848,474.39,155.37)">
              <path
                 id="path11825"
                 transform="matrix(1.1994,0,0,1.1994,-36.458,-82.218)"
                 d="m 240,412.36 a 57.145,57.145 0 1 1 -114.29,0 57.145,57.145 0 1 1 114.29,0 z"
                 inkscape:connector-curvature="0" />
              <path
                 id="path11827"
                 transform="matrix(1.1556,0,0,1.1556,-28.45,-64.157)"
                 d="m 240,412.36 a 57.145,57.145 0 1 1 -114.29,0 57.145,57.145 0 1 1 114.29,0 z"
                 inkscape:connector-curvature="0"
                 style="fill:#ffffff" />
              <path
                 id="path11829"
                 transform="matrix(1.0088,0,0,1.0088,-1.6112,-3.6335)"
                 d="m 240,412.36 a 57.145,57.145 0 1 1 -114.29,0 57.145,57.145 0 1 1 114.29,0 z"
                 inkscape:connector-curvature="0"
                 style="fill:#4d4d4d" />
            </g>
          </g>
          <g
             id="g11831">
            <g
               id="g11833">
              <g
                 id="g11835">
                <path
                   id="path11837"
                   d="m 540.69,227.5 c -11.187,1.8964 -22.514,3.2654 -33.969,4.1875 -7.2054,5.8878 -11.781,14.844 -11.781,24.875 0,17.732 14.361,32.125 32.094,32.125 17.732,0 32.094,-14.392 32.094,-32.125 0,-12.845 -7.5395,-23.929 -18.438,-29.062 z"
                   inkscape:connector-curvature="0" />
                <path
                   id="path11839"
                   d="m 538.56,227.88 c -9.7685,1.5921 -19.653,2.7736 -29.625,3.625 -7.7673,5.6199 -12.844,14.742 -12.844,25.062 0,17.085 13.853,30.938 30.938,30.938 17.085,0 30.938,-13.853 30.938,-30.938 0,-13.002 -8.0424,-24.111 -19.406,-28.688 z"
                   inkscape:connector-curvature="0"
                   style="fill:#ffffff" />
                <path
                   id="path11841"
                   d="m 526.91,229.56 c -2.1142,0.27388 -4.2202,0.54146 -6.3438,0.78125 -11.789,2.8997 -20.531,13.535 -20.531,26.219 0,14.915 12.085,27 27,27 14.915,0 27,-12.085 27,-27 0,-14.915 -12.085,-27 -27,-27 -0.0424,0 -0.0827,-1.9e-4 -0.125,0 z"
                   inkscape:connector-curvature="0"
                   style="fill:#4d4d4d" />
              </g>
            </g>
            <g
               id="g11843"
               transform="matrix(0.46848,0,0,0.46848,441.37,126.51)">
              <path
                 id="path11845"
                 transform="matrix(1.1994,0,0,1.1994,-36.458,-82.218)"
                 d="m 240,412.36 a 57.145,57.145 0 1 1 -114.29,0 57.145,57.145 0 1 1 114.29,0 z"
                 inkscape:connector-curvature="0" />
              <path
                 id="path11847"
                 transform="matrix(1.1556,0,0,1.1556,-28.45,-64.157)"
                 d="m 240,412.36 a 57.145,57.145 0 1 1 -114.29,0 57.145,57.145 0 1 1 114.29,0 z"
                 inkscape:connector-curvature="0"
                 style="fill:#ffffff" />
              <path
                 id="path11849"
                 transform="matrix(1.0088,0,0,1.0088,-1.6112,-3.6335)"
                 d="m 240,412.36 a 57.145,57.145 0 1 1 -114.29,0 57.145,57.145 0 1 1 114.29,0 z"
                 inkscape:connector-curvature="0"
                 style="fill:#4d4d4d" />
            </g>
            <g
               id="g11851">
              <path
                 id="path11853"
                 d="m 527.03,350.72 c -17.732,0 -32.094,14.361 -32.094,32.094 0,14.348 9.3893,26.509 22.375,30.625 0.01,0.003 0.0217,-0.003 0.0312,0 9.1186,-0.99842 18.252,-2.289 27.375,-3.8438 8.6792,-5.7475 14.406,-15.592 14.406,-26.781 0,-17.732 -14.361,-32.094 -32.094,-32.094 z"
                 inkscape:connector-curvature="0" />
              <path
                 id="path11855"
                 d="m 527.03,351.91 c -17.085,0 -30.938,13.821 -30.938,30.906 0,14.849 10.482,27.258 24.438,30.25 7.0407,-0.81931 14.082,-1.818 21.125,-2.9688 9.7099,-5.2184 16.312,-15.486 16.312,-27.281 0,-17.085 -13.853,-30.906 -30.938,-30.906 z"
                 inkscape:connector-curvature="0"
                 style="fill:#ffffff" />
              <path
                 id="path11857"
                 transform="matrix(0.4726,0,0,0.4726,440.61,187.94)"
                 d="m 240,412.36 a 57.145,57.145 0 1 1 -114.29,0 57.145,57.145 0 1 1 114.29,0 z"
                 inkscape:connector-curvature="0"
                 style="fill:#4d4d4d" />
            </g>
          </g>
          <g
             id="g11859">
            <g
               id="g11861"
               transform="matrix(0.46848,0,0,0.46848,409.46,94.24)">
              <path
                 id="path11863"
                 transform="matrix(1.1994,0,0,1.1994,-36.458,-82.218)"
                 d="m 240,412.36 a 57.145,57.145 0 1 1 -114.29,0 57.145,57.145 0 1 1 114.29,0 z"
                 inkscape:connector-curvature="0" />
              <path
                 id="path11865"
                 transform="matrix(1.1556,0,0,1.1556,-28.45,-64.157)"
                 d="m 240,412.36 a 57.145,57.145 0 1 1 -114.29,0 57.145,57.145 0 1 1 114.29,0 z"
                 inkscape:connector-curvature="0"
                 style="fill:#ffffff" />
              <path
                 id="path11867"
                 transform="matrix(1.0088,0,0,1.0088,-1.6112,-3.6335)"
                 d="m 240,412.36 a 57.145,57.145 0 1 1 -114.29,0 57.145,57.145 0 1 1 114.29,0 z"
                 inkscape:connector-curvature="0"
                 style="fill:#4d4d4d" />
            </g>
            <g
               id="g11869"
               transform="matrix(0.46848,0,0,0.46848,409.46,157.37)">
              <path
                 id="path11871"
                 transform="matrix(1.1994,0,0,1.1994,-36.458,-82.218)"
                 d="m 240,412.36 a 57.145,57.145 0 1 1 -114.29,0 57.145,57.145 0 1 1 114.29,0 z"
                 inkscape:connector-curvature="0" />
              <path
                 id="path11873"
                 transform="matrix(1.1556,0,0,1.1556,-28.45,-64.157)"
                 d="m 240,412.36 a 57.145,57.145 0 1 1 -114.29,0 57.145,57.145 0 1 1 114.29,0 z"
                 inkscape:connector-curvature="0"
                 style="fill:#ffffff" />
              <path
                 id="path11875"
                 transform="matrix(1.0088,0,0,1.0088,-1.6112,-3.6335)"
                 d="m 240,412.36 a 57.145,57.145 0 1 1 -114.29,0 57.145,57.145 0 1 1 114.29,0 z"
                 inkscape:connector-curvature="0"
                 style="fill:#4d4d4d" />
            </g>
            <g
               id="g11877">
              <path
                 id="path11879"
                 d="m 495.12,381.56 c -17.67,0 -31.993,14.292 -32.094,31.938 12.555,1.8219 25.593,2.4002 39.5,1.3125 8.1951,-0.64093 16.421,-1.5158 24.656,-2.5938 -0.76656,-17.052 -14.821,-30.656 -32.062,-30.656 z"
                 inkscape:connector-curvature="0" />
              <path
                 id="path11881"
                 d="m 495.12,382.75 c -17.074,0 -30.921,13.836 -30.938,30.906 12.201,1.6924 24.861,2.2107 38.344,1.1562 7.8122,-0.61099 15.65,-1.4299 23.5,-2.4375 -0.69,-16.47 -14.26,-29.62 -30.91,-29.62 z"
                 inkscape:connector-curvature="0"
                 style="fill:#ffffff" />
              <path
                 id="path11883"
                 d="m 495.12,386.69 c -14.915,0 -27,12.085 -27,27 0,0.15881 -0.003,0.31059 0,0.46875 10.985,1.281 22.372,1.5974 34.406,0.65625 6.5043,-0.50869 13.029,-1.1551 19.562,-1.9375 -0.42592,-14.542 -12.323,-26.188 -26.969,-26.188 z"
                 inkscape:connector-curvature="0"
                 style="fill:#4d4d4d" />
            </g>
            <g
               id="g11885">
              <g
                 id="g11887">
                <path
                   id="path11889"
                   d="m 524.5,229.88 c -12.549,1.5448 -25.264,2.4947 -38.125,3.0312 -8.3551,0.34857 -16.586,-0.0825 -24.719,-1.125 3.3768,14.116 16.068,24.625 31.219,24.625 15.826,0 28.98,-11.463 31.625,-26.531 z"
                   inkscape:connector-curvature="0" />
                <path
                   id="path11891"
                   d="m 523.28,230.03 c -12.152,1.457 -24.462,2.3558 -36.906,2.875 -7.9264,0.33068 -15.744,-0.0411 -23.469,-0.96875 3.4001,13.392 15.519,23.281 29.969,23.281 15.124,0 27.715,-10.845 30.406,-25.188 z"
                   inkscape:connector-curvature="0"
                   style="fill:#ffffff" />
                <path
                   id="path11893"
                   d="m 519.16,230.5 c -10.809,1.1824 -21.744,1.9458 -32.781,2.4062 -6.4887,0.2707 -12.899,0.0554 -19.25,-0.53125 3.4398,10.959 13.656,18.906 25.75,18.906 12.773,0 23.471,-8.8665 26.281,-20.781 z"
                   inkscape:connector-curvature="0"
                   style="fill:#4d4d4d" />
              </g>
            </g>
          </g>
          <path
             id="path11895"
             d="m 460.97,350.75 c -17.732,0 -32.094,14.392 -32.094,32.125 0,11.083 5.6156,20.855 14.156,26.625 0.0123,0.003 0.0189,0.0282 0.0312,0.0312 8.1854,2.0462 16.525,3.6272 25.094,4.625 14.272,-3.2642 24.938,-16.02 24.938,-31.281 0,-17.732 -14.392,-32.125 -32.125,-32.125 z"
             inkscape:connector-curvature="0" />
          <path
             id="path11897"
             d="m 460.97,351.94 c -17.085,0 -30.938,13.853 -30.938,30.938 0,12.098 6.9729,22.54 17.094,27.625 5.5578,1.2772 11.205,2.3258 16.938,3.125 15.643,-1.542 27.844,-14.702 27.844,-30.75 0,-17.085 -13.853,-30.938 -30.938,-30.938 z"
             inkscape:connector-curvature="0"
             style="fill:#ffffff" />
          <g
             id="g11899">
            <g
               id="g11901">
              <path
                 id="path11903"
                 d="m 444.97,228.78 c -9.6096,5.5483 -16.094,15.919 -16.094,27.812 0,17.732 14.361,32.125 32.094,32.125 17.732,0 32.125,-14.392 32.125,-32.125 0,-9.3255 -3.9949,-17.697 -10.344,-23.562 -12.853,0.20148 -25.414,-1.4026 -37.781,-4.25 z"
                 inkscape:connector-curvature="0" />
              <path
                 id="path11905"
                 d="m 446.69,229.19 c -9.8814,5.1647 -16.656,15.484 -16.656,27.406 0,17.085 13.853,30.938 30.938,30.938 17.085,0 30.938,-13.853 30.938,-30.938 0,-9.4433 -4.2362,-17.888 -10.906,-23.562 -11.646,0.0373 -23.066,-1.3671 -34.312,-3.8438 z"
                 inkscape:connector-curvature="0"
                 style="fill:#ffffff" />
              <path
                 id="path11907"
                 d="m 453.72,230.59 c -11.391,3.1694 -19.75,13.598 -19.75,26 0,14.915 12.085,27 27,27 14.915,0 27.031,-12.085 27.031,-27 0,-10.254 -5.7378,-19.177 -14.156,-23.75 -6.7752,-0.31821 -13.487,-1.0671 -20.125,-2.25 z"
                 inkscape:connector-curvature="0"
                 style="fill:#4d4d4d" />
            </g>
            <g
               id="g11909"
               transform="matrix(0.46848,0,0,0.46848,375.32,126.55)">
              <path
                 id="path11911"
                 transform="matrix(1.1994,0,0,1.1994,-36.458,-82.218)"
                 d="m 240,412.36 a 57.145,57.145 0 1 1 -114.29,0 57.145,57.145 0 1 1 114.29,0 z"
                 inkscape:connector-curvature="0" />
              <path
                 id="path11913"
                 transform="matrix(1.1556,0,0,1.1556,-28.45,-64.157)"
                 d="m 240,412.36 a 57.145,57.145 0 1 1 -114.29,0 57.145,57.145 0 1 1 114.29,0 z"
                 inkscape:connector-curvature="0"
                 style="fill:#ffffff" />
              <path
                 id="path11915"
                 transform="matrix(1.0088,0,0,1.0088,-1.6112,-3.6335)"
                 d="m 240,412.36 a 57.145,57.145 0 1 1 -114.29,0 57.145,57.145 0 1 1 114.29,0 z"
                 inkscape:connector-curvature="0"
                 style="fill:#4d4d4d" />
            </g>
            <path
               id="path11917"
               transform="matrix(0.4726,0,0,0.4726,374.56,187.98)"
               d="m 240,412.36 a 57.145,57.145 0 1 1 -114.29,0 57.145,57.145 0 1 1 114.29,0 z"
               inkscape:connector-curvature="0"
               style="fill:#4d4d4d" />
          </g>
          <g
             id="g11919">
            <g
               id="g11921"
               transform="matrix(0.46848,0,0,0.46848,343.41,94.24)">
              <path
                 id="path11923"
                 transform="matrix(1.1994,0,0,1.1994,-36.458,-82.218)"
                 d="m 240,412.36 a 57.145,57.145 0 1 1 -114.29,0 57.145,57.145 0 1 1 114.29,0 z"
                 inkscape:connector-curvature="0" />
              <path
                 id="path11925"
                 transform="matrix(1.1556,0,0,1.1556,-28.45,-64.157)"
                 d="m 240,412.36 a 57.145,57.145 0 1 1 -114.29,0 57.145,57.145 0 1 1 114.29,0 z"
                 inkscape:connector-curvature="0"
                 style="fill:#ffffff" />
              <path
                 id="path11927"
                 transform="matrix(1.0088,0,0,1.0088,-1.6112,-3.6335)"
                 d="m 240,412.36 a 57.145,57.145 0 1 1 -114.29,0 57.145,57.145 0 1 1 114.29,0 z"
                 inkscape:connector-curvature="0"
                 style="fill:#4d4d4d" />
            </g>
            <g
               id="g11929"
               transform="matrix(0.46848,0,0,0.46848,343.41,157.37)">
              <path
                 id="path11931"
                 transform="matrix(1.1994,0,0,1.1994,-36.458,-82.218)"
                 d="m 240,412.36 a 57.145,57.145 0 1 1 -114.29,0 57.145,57.145 0 1 1 114.29,0 z"
                 inkscape:connector-curvature="0" />
              <path
                 id="path11933"
                 transform="matrix(1.1556,0,0,1.1556,-28.45,-64.157)"
                 d="m 240,412.36 a 57.145,57.145 0 1 1 -114.29,0 57.145,57.145 0 1 1 114.29,0 z"
                 inkscape:connector-curvature="0"
                 style="fill:#ffffff" />
              <path
                 id="path11935"
                 transform="matrix(1.0088,0,0,1.0088,-1.6112,-3.6335)"
                 d="m 240,412.36 a 57.145,57.145 0 1 1 -114.29,0 57.145,57.145 0 1 1 114.29,0 z"
                 inkscape:connector-curvature="0"
                 style="fill:#4d4d4d" />
            </g>
            <g
               id="g11937">
              <path
                 id="path11939"
                 d="m 429.09,381.56 c -11.172,0 -20.999,5.7181 -26.75,14.375 19.395,7.7377 38.493,14.121 58.844,17.281 C 460.93292,395.7 446.666,381.56 429.09,381.56 Z"
                 inkscape:connector-curvature="0" />
              <path
                 id="path11941"
                 d="m 429.09,382.75 c -10.678,0 -20.097,5.3962 -25.656,13.625 18.643,7.3925 37.036,13.497 56.562,16.656 -0.35,-16.78 -14.04,-30.28 -30.91,-30.28 z"
                 inkscape:connector-curvature="0"
                 style="fill:#ffffff" />
              <path
                 id="path11943"
                 d="m 429.09,386.69 c -8.9925,0 -16.967,4.3969 -21.875,11.156 16.098,6.2355 32.085,11.431 48.844,14.5 C 455.36646,398.048 443.56,386.69 429.09,386.69 Z"
                 inkscape:connector-curvature="0"
                 style="fill:#4d4d4d" />
            </g>
            <g
               id="g11945">
              <path
                 id="path11947"
                 d="m 397.12,212.12 c -1.5364,3.7511 -2.4062,7.852 -2.4062,12.156 0,17.732 14.392,32.125 32.125,32.125 15.316,0 28.106,-10.744 31.312,-25.094 -20.844,-3.1393 -41.063,-10.319 -61.031,-19.188 z"
                 inkscape:connector-curvature="0" />
              <path
                 id="path11949"
                 d="m 398.22,212.59 c -1.4771,3.6107 -2.3125,7.5451 -2.3125,11.688 0,17.085 13.853,30.938 30.938,30.938 14.737,0 27.046,-10.296 30.156,-24.094 -20.057,-3.167 -39.537,-10.049 -58.781,-18.531 z"
                 inkscape:connector-curvature="0"
                 style="fill:#ffffff" />
              <path
                 id="path11951"
                 d="m 401.78,214.16 c -1.2676,3.1292 -1.9375,6.5412 -1.9375,10.125 0,14.915 12.085,27 27,27 12.785,0 23.483,-8.8815 26.281,-20.812 -17.463,-3.1756 -34.501,-9.0819 -51.344,-16.312 z"
                 inkscape:connector-curvature="0"
                 style="fill:#4d4d4d" />
            </g>
          </g>
          <g
             id="g11953">
            <g
               id="g11955"
               transform="matrix(0.46848,0,0,0.46848,310.39,63.25)">
              <path
                 id="path11957"
                 transform="matrix(1.1994,0,0,1.1994,-36.458,-82.218)"
                 d="m 240,412.36 a 57.145,57.145 0 1 1 -114.29,0 57.145,57.145 0 1 1 114.29,0 z"
                 inkscape:connector-curvature="0" />
              <path
                 id="path11959"
                 transform="matrix(1.1556,0,0,1.1556,-28.45,-64.157)"
                 d="m 240,412.36 a 57.145,57.145 0 1 1 -114.29,0 57.145,57.145 0 1 1 114.29,0 z"
                 inkscape:connector-curvature="0"
                 style="fill:#ffffff" />
              <path
                 id="path11961"
                 transform="matrix(1.0088,0,0,1.0088,-1.6112,-3.6335)"
                 d="m 240,412.36 a 57.145,57.145 0 1 1 -114.29,0 57.145,57.145 0 1 1 114.29,0 z"
                 inkscape:connector-curvature="0"
                 style="fill:#4d4d4d" />
            </g>
            <g
               id="g11963"
               transform="matrix(0.46848,0,0,0.46848,310.39,126.38)">
              <path
                 id="path11965"
                 transform="matrix(1.1994,0,0,1.1994,-36.458,-82.218)"
                 d="m 240,412.36 a 57.145,57.145 0 1 1 -114.29,0 57.145,57.145 0 1 1 114.29,0 z"
                 inkscape:connector-curvature="0" />
              <path
                 id="path11967"
                 transform="matrix(1.1556,0,0,1.1556,-28.45,-64.157)"
                 d="m 240,412.36 a 57.145,57.145 0 1 1 -114.29,0 57.145,57.145 0 1 1 114.29,0 z"
                 inkscape:connector-curvature="0"
                 style="fill:#ffffff" />
              <path
                 id="path11969"
                 transform="matrix(1.0088,0,0,1.0088,-1.6112,-3.6335)"
                 d="m 240,412.36 a 57.145,57.145 0 1 1 -114.29,0 57.145,57.145 0 1 1 114.29,0 z"
                 inkscape:connector-curvature="0"
                 style="fill:#4d4d4d" />
            </g>
            <g
               id="g11971">
              <path
                 id="path11973"
                 d="m 396.06,350.59 c -16.763,0 -30.514,12.834 -31.969,29.219 19.722,8.4056 38.223,16.654 56.906,23.094 4.478,-5.5192 7.1562,-12.558 7.1562,-20.219 0,-17.732 -14.361,-32.094 -32.094,-32.094 z"
                 inkscape:connector-curvature="0" />
              <path
                 id="path11975"
                 d="m 396.06,351.75 c -16.284,0 -29.628,12.59 -30.844,28.562 18.894,8.0655 36.691,15.932 54.625,22.188 4.48,-5.36 7.16,-12.28 7.16,-19.81 0,-17.09 -13.85,-30.94 -30.94,-30.94 z"
                 inkscape:connector-curvature="0"
                 style="fill:#ffffff" />
              <path
                 id="path11977"
                 d="m 396.06,355.69 c -14.661,0 -26.566,11.687 -26.969,26.25 16.052,6.8807 31.376,13.564 46.719,19.125 4.4844,-4.8213 7.25,-11.271 7.25,-18.375 0,-14.915 -12.085,-27 -27,-27 z"
                 inkscape:connector-curvature="0"
                 style="fill:#4d4d4d" />
            </g>
            <g
               id="g11979">
              <path
                 id="path11981"
                 d="m 361.75,195.03 c 0.90607,16.921 14.915,30.375 32.062,30.375 7.308,0 14.041,-2.4506 19.438,-6.5625 -17.339,-6.7089 -34.42,-15.128 -51.5,-23.812 z"
                 inkscape:connector-curvature="0" />
              <path
                 id="path11983"
                 d="m 362.97,195.62 c 1.1853,16.002 14.538,28.625 30.844,28.625 6.7785,0 13.028,-2.2089 18.125,-5.9062 -16.48,-6.46 -32.72,-14.47 -48.97,-22.72 z"
                 inkscape:connector-curvature="0"
                 style="fill:#ffffff" />
              <path
                 id="path11985"
                 d="m 367.19,197.75 c 2.1243,12.795 13.228,22.562 26.625,22.562 5.0119,0 9.6962,-1.3711 13.719,-3.75 -13.557,-5.5455 -26.946,-12.056 -40.344,-18.812 z"
                 inkscape:connector-curvature="0"
                 style="fill:#4d4d4d" />
            </g>
          </g>
          <g
             id="g11987">
            <g
               id="g11989"
               transform="matrix(0.46848,0,0,0.46848,277.36,94.24)">
              <path
                 id="path11991"
                 transform="matrix(1.1994,0,0,1.1994,-36.458,-82.218)"
                 d="m 240,412.36 a 57.145,57.145 0 1 1 -114.29,0 57.145,57.145 0 1 1 114.29,0 z"
                 inkscape:connector-curvature="0" />
              <path
                 id="path11993"
                 transform="matrix(1.1556,0,0,1.1556,-28.45,-64.157)"
                 d="m 240,412.36 a 57.145,57.145 0 1 1 -114.29,0 57.145,57.145 0 1 1 114.29,0 z"
                 inkscape:connector-curvature="0"
                 style="fill:#ffffff" />
              <path
                 id="path11995"
                 transform="matrix(1.0088,0,0,1.0088,-1.6112,-3.6335)"
                 d="m 240,412.36 a 57.145,57.145 0 1 1 -114.29,0 57.145,57.145 0 1 1 114.29,0 z"
                 inkscape:connector-curvature="0"
                 style="fill:#4d4d4d" />
            </g>
            <g
               id="g11997">
              <path
                 id="path11999"
                 d="m 363.03,318.44 c -17.732,0 -32.125,14.392 -32.125,32.125 0,6.625 2.0303,12.762 5.4688,17.875 11.446,4.4393 22.33,9.0595 32.906,13.594 14.738,-2.9108 25.844,-15.877 25.844,-31.469 0,-17.732 -14.361,-32.125 -32.094,-32.125 z"
                 inkscape:connector-curvature="0" />
              <path
                 id="path12001"
                 d="m 363.03,319.62 c -17.085,0 -30.938,13.853 -30.938,30.938 0,7.0135 2.3477,13.467 6.2812,18.656 10.002,3.9187 19.607,7.9759 28.938,11.969 15.059,-2.0841 26.656,-14.992 26.656,-30.625 0,-17.085 -13.853,-30.938 -30.938,-30.938 z"
                 inkscape:connector-curvature="0"
                 style="fill:#ffffff" />
              <path
                 id="path12003"
                 d="m 363.03,323.56 c -14.915,0 -27,12.085 -27,27 0,9.5472 4.9597,17.916 12.438,22.719 2.9778,1.2184 5.9289,2.4308 8.8438,3.6562 1.8453,0.39831 3.7543,0.625 5.7188,0.625 14.915,0 27,-12.085 27,-27 0,-14.915 -12.085,-27 -27,-27 z"
                 inkscape:connector-curvature="0"
                 style="fill:#4d4d4d" />
            </g>
            <g
               id="g12005">
              <path
                 id="path12007"
                 d="m 356.72,192.44 c -15.81,2.0008 -28.031,15.491 -28.031,31.844 0,17.732 14.361,32.125 32.094,32.125 17.732,0 32.125,-14.392 32.125,-32.125 0,-5.8606 -1.5699,-11.333 -4.3125,-16.062 -10.66,-4.9845 -21.258,-10.363 -31.875,-15.781 z"
                 inkscape:connector-curvature="0" />
              <path
                 id="path12009"
                 d="m 358.66,193.44 c -16.092,1.0935 -28.812,14.474 -28.812,30.844 0,17.085 13.853,30.938 30.938,30.938 17.085,0 30.938,-13.853 30.938,-30.938 0,-6.2703 -1.8562,-12.095 -5.0625,-16.969 -9.3607,-4.4201 -18.673,-9.1196 -28,-13.875 z"
                 inkscape:connector-curvature="0"
                 style="fill:#ffffff" />
              <path
                 id="path12011"
                 d="m 360.78,197.28 c -14.915,0 -27,12.085 -27,27 0,14.915 12.085,27 27,27 14.915,0 27,-12.085 27,-27 0,-8.9117 -4.3123,-16.8 -10.969,-21.719 -2.8057,-1.3798 -5.6036,-2.7775 -8.4062,-4.1875 -2.4182,-0.71045 -4.9768,-1.0938 -7.625,-1.0938 z"
                 inkscape:connector-curvature="0"
                 style="fill:#4d4d4d" />
            </g>
          </g>
          <g
             id="g12013">
            <g
               id="g12015"
               transform="matrix(0.46848,0,0,0.46848,244.34,63.25)">
              <path
                 id="path12017"
                 transform="matrix(1.1994,0,0,1.1994,-36.458,-82.218)"
                 d="m 240,412.36 a 57.145,57.145 0 1 1 -114.29,0 57.145,57.145 0 1 1 114.29,0 z"
                 inkscape:connector-curvature="0" />
              <path
                 id="path12019"
                 transform="matrix(1.1556,0,0,1.1556,-28.45,-64.157)"
                 d="m 240,412.36 a 57.145,57.145 0 1 1 -114.29,0 57.145,57.145 0 1 1 114.29,0 z"
                 inkscape:connector-curvature="0"
                 style="fill:#ffffff" />
              <path
                 id="path12021"
                 transform="matrix(1.0088,0,0,1.0088,-1.6112,-3.6335)"
                 d="m 240,412.36 a 57.145,57.145 0 1 1 -114.29,0 57.145,57.145 0 1 1 114.29,0 z"
                 inkscape:connector-curvature="0"
                 style="fill:#4d4d4d" />
            </g>
            <g
               id="g12023"
               transform="matrix(0.46848,0,0,0.46848,244.34,126.38)">
              <path
                 id="path12025"
                 transform="matrix(1.1994,0,0,1.1994,-36.458,-82.218)"
                 d="m 240,412.36 a 57.145,57.145 0 1 1 -114.29,0 57.145,57.145 0 1 1 114.29,0 z"
                 inkscape:connector-curvature="0" />
              <path
                 id="path12027"
                 transform="matrix(1.1556,0,0,1.1556,-28.45,-64.157)"
                 d="m 240,412.36 a 57.145,57.145 0 1 1 -114.29,0 57.145,57.145 0 1 1 114.29,0 z"
                 inkscape:connector-curvature="0"
                 style="fill:#ffffff" />
              <path
                 id="path12029"
                 transform="matrix(1.0088,0,0,1.0088,-1.6112,-3.6335)"
                 d="m 240,412.36 a 57.145,57.145 0 1 1 -114.29,0 57.145,57.145 0 1 1 114.29,0 z"
                 inkscape:connector-curvature="0"
                 style="fill:#4d4d4d" />
            </g>
            <g
               id="g12031">
              <path
                 id="path12033"
                 d="m 330,350.59 c -8.1402,0 -15.559,3.0386 -21.219,8.0312 19.128,6.1604 36.56,13.23 53.094,20.25 -1.89,-15.93 -15.44,-28.28 -31.88,-28.28 z"
                 inkscape:connector-curvature="0" />
              <path
                 id="path12035"
                 d="m 330,351.75 c -7.5941,0 -14.554,2.7407 -19.938,7.2812 18.144,5.9056 34.773,12.624 50.562,19.312 -2.11,-15.02 -15.01,-26.59 -30.62,-26.59 z"
                 inkscape:connector-curvature="0"
                 style="fill:#ffffff" />
              <path
                 id="path12037"
                 d="m 330,355.69 c -5.7454,0 -11.06,1.8164 -15.438,4.875 14.762,4.9794 28.564,10.421 41.719,15.938 -2.8,-11.93 -13.5,-20.81 -26.28,-20.81 z"
                 inkscape:connector-curvature="0"
                 style="fill:#4d4d4d" />
            </g>
            <g
               id="g12039">
              <path
                 id="path12041"
                 d="m 307.41,168.47 c -7.1744,5.8884 -11.75,14.838 -11.75,24.844 0,17.732 14.361,32.094 32.094,32.094 17.477,0 31.687,-13.965 32.094,-31.344 -17.383,-8.855 -34.771,-17.901 -52.438,-25.594 z"
                 inkscape:connector-curvature="0" />
              <path
                 id="path12043"
                 d="m 308.62,169 c -7.1819,5.6649 -11.812,14.455 -11.812,24.312 0,17.085 13.853,30.938 30.938,30.938 17.033,0 30.853,-13.768 30.938,-30.781 -16.59,-8.46 -33.2,-17.07 -50.06,-24.47 z"
                 inkscape:connector-curvature="0"
                 style="fill:#ffffff" />
              <path
                 id="path12045"
                 d="m 312.75,170.84 c -7.2364,4.8448 -12,13.106 -12,22.469 0,14.915 12.085,27 27,27 14.915,0 27,-12.085 27,-27 0,-0.63552 -0.0193,-1.2817 -0.0625,-1.9062 -13.912,-7.1042 -27.845,-14.2 -41.938,-20.562 z"
                 inkscape:connector-curvature="0"
                 style="fill:#4d4d4d" />
            </g>
          </g>
          <g
             id="g12047">
            <g
               id="g12049"
               transform="matrix(0.46848,0,0,0.46848,211.31,30.597)">
              <path
                 id="path12051"
                 transform="matrix(1.1994,0,0,1.1994,-36.458,-82.218)"
                 d="m 240,412.36 a 57.145,57.145 0 1 1 -114.29,0 57.145,57.145 0 1 1 114.29,0 z"
                 inkscape:connector-curvature="0" />
              <path
                 id="path12053"
                 transform="matrix(1.1556,0,0,1.1556,-28.45,-64.157)"
                 d="m 240,412.36 a 57.145,57.145 0 1 1 -114.29,0 57.145,57.145 0 1 1 114.29,0 z"
                 inkscape:connector-curvature="0"
                 style="fill:#ffffff" />
              <path
                 id="path12055"
                 transform="matrix(1.0088,0,0,1.0088,-1.6112,-3.6335)"
                 d="m 240,412.36 a 57.145,57.145 0 1 1 -114.29,0 57.145,57.145 0 1 1 114.29,0 z"
                 inkscape:connector-curvature="0"
                 style="fill:#4d4d4d" />
            </g>
            <g
               id="g12057"
               transform="matrix(0.46848,0,0,0.46848,211.31,93.729)">
              <path
                 id="path12059"
                 transform="matrix(1.1994,0,0,1.1994,-36.458,-82.218)"
                 d="m 240,412.36 a 57.145,57.145 0 1 1 -114.29,0 57.145,57.145 0 1 1 114.29,0 z"
                 inkscape:connector-curvature="0" />
              <path
                 id="path12061"
                 transform="matrix(1.1556,0,0,1.1556,-28.45,-64.157)"
                 d="m 240,412.36 a 57.145,57.145 0 1 1 -114.29,0 57.145,57.145 0 1 1 114.29,0 z"
                 inkscape:connector-curvature="0"
                 style="fill:#ffffff" />
              <path
                 id="path12063"
                 transform="matrix(1.0088,0,0,1.0088,-1.6112,-3.6335)"
                 d="m 240,412.36 a 57.145,57.145 0 1 1 -114.29,0 57.145,57.145 0 1 1 114.29,0 z"
                 inkscape:connector-curvature="0"
                 style="fill:#4d4d4d" />
            </g>
            <g
               id="g12065">
              <path
                 id="path12067"
                 d="m 296.97,317.94 c -16.773,0 -30.528,12.851 -31.969,29.25 22.297,4.4225 42.249,10.496 60.688,17.219 2.1658,-4.3222 3.4062,-9.2114 3.4062,-14.375 0,-17.732 -14.392,-32.094 -32.125,-32.094 z"
                 inkscape:connector-curvature="0" />
              <path
                 id="path12069"
                 d="m 296.97,319.09 c -16.199,0 -29.477,12.459 -30.812,28.312 21.401,4.3149 40.619,10.174 58.438,16.625 2.1315,-4.1994 3.3125,-8.9683 3.3125,-14 0,-17.085 -13.853,-30.938 -30.938,-30.938 z"
                 inkscape:connector-curvature="0"
                 style="fill:#ffffff" />
              <path
                 id="path12071"
                 d="m 296.97,323.03 c -14.301,0 -25.998,11.125 -26.938,25.188 18.373,3.9081 35.12,8.9404 50.781,14.469 2.0084,-3.7766 3.1562,-8.0805 3.1562,-12.656 0,-14.915 -12.085,-27 -27,-27 z"
                 inkscape:connector-curvature="0"
                 style="fill:#4d4d4d" />
            </g>
            <g
               id="g12073">
              <path
                 id="path12075"
                 d="m 263.5,153.19 c -0.57084,2.3964 -0.875,4.8976 -0.875,7.4688 0,17.732 14.361,32.094 32.094,32.094 12.306,0 23.017,-6.9299 28.406,-17.094 -19.51,-9.3124 -39.26,-17.531 -59.625,-22.469 z"
                 inkscape:connector-curvature="0" />
              <path
                 id="path12077"
                 d="m 264.66,153.5 c -0.54219,2.2934 -0.84375,4.6972 -0.84375,7.1562 0,17.085 13.821,30.938 30.906,30.938 11.845,0 22.146,-6.6608 27.344,-16.438 -18.8,-8.93 -37.83,-16.79 -57.41,-21.66 z"
                 inkscape:connector-curvature="0"
                 style="fill:#ffffff" />
              <path
                 id="path12079"
                 d="m 268.44,154.47 c -0.46635,1.9882 -0.71875,4.0571 -0.71875,6.1875 0,14.915 12.085,27 27,27 10.279,0 19.218,-5.736 23.781,-14.188 -16.422,-7.6636 -33.038,-14.42 -50.062,-19 z"
                 inkscape:connector-curvature="0"
                 style="fill:#4d4d4d" />
            </g>
          </g>
          <g
             id="g12081">
            <g
               id="g12083">
              <path
                 id="path12085"
                 d="m 262.84,286.94 c -17.732,0 -32.125,14.361 -32.125,32.094 0,9.7337 4.347,18.456 11.188,24.344 11.282,1.5089 21.975,3.4625 32.156,5.75 12.195,-4.5526 20.875,-16.311 20.875,-30.094 0,-17.732 -14.361,-32.094 -32.094,-32.094 z"
                 inkscape:connector-curvature="0" />
              <path
                 id="path12087"
                 d="m 262.84,288.09 c -17.085,0 -30.938,13.853 -30.938,30.938 0,10.041 4.7748,18.974 12.188,24.625 9.6886,1.3538 18.947,3.0323 27.812,4.9688 12.656,-3.8783 21.844,-15.667 21.844,-29.594 0,-17.085 -13.821,-30.938 -30.906,-30.938 z"
                 inkscape:connector-curvature="0"
                 style="fill:#ffffff" />
              <path
                 id="path12089"
                 d="m 262.84,292.03 c -14.915,0 -27.031,12.085 -27.031,27 0,14.915 12.116,27.031 27.031,27.031 14.915,0 27,-12.116 27,-27.031 0,-14.915 -12.085,-27 -27,-27 z"
                 inkscape:connector-curvature="0"
                 style="fill:#4d4d4d" />
            </g>
            <g
               id="g12091"
               transform="matrix(0.46848,0,0,0.46848,144.14,93.298)">
              <path
                 id="path12093"
                 transform="matrix(1.1994,0,0,1.1994,-36.458,-82.218)"
                 d="m 240,412.36 a 57.145,57.145 0 1 1 -114.29,0 57.145,57.145 0 1 1 114.29,0 z"
                 inkscape:connector-curvature="0" />
              <path
                 id="path12095"
                 transform="matrix(1.1556,0,0,1.1556,-28.45,-64.157)"
                 d="m 240,412.36 a 57.145,57.145 0 1 1 -114.29,0 57.145,57.145 0 1 1 114.29,0 z"
                 inkscape:connector-curvature="0"
                 style="fill:#ffffff" />
              <path
                 id="path12097"
                 transform="matrix(1.0088,0,0,1.0088,-1.6112,-3.6335)"
                 d="m 240,412.36 a 57.145,57.145 0 1 1 -114.29,0 57.145,57.145 0 1 1 114.29,0 z"
                 inkscape:connector-curvature="0"
                 style="fill:#4d4d4d" />
            </g>
          </g>
        </g>
        <g
           id="g12101"
           transform="translate(-74.286,-754.28)">
          <path
             id="path12103"
             d="m 255.12,-171.31 c -30.392,0.21031 -60.472,7.1653 -88.406,18.875 24.796,30.713 29.429,72.126 25.938,110.38 20.934,18.616 50.7,19.499 77.281,20.188 22.176,1.0098 47.739,0.91828 64.375,17.844 4.4313,4.7446 7.6394,10.507 10.125,16.531 15.417,3.2827 28.568,-10.181 32.75,-23.844 3.4426,-8.8693 5.5411,-18.203 7.4062,-27.531 16.177,1.8486 36.172,0.4047 45.969,-14.375 8.4648,-15.221 0.28187,-33.449 -9.7301,-45.734 -27.161,-35.14 -69.204,-55.781 -111.68,-66.391 -17.685,-4.1455 -35.838,-6.2048 -54.031,-5.9375 z"
             inkscape:connector-curvature="0" />
          <path
             id="path12105"
             d="m 255.16,-169.31 c -29.26,0.21662 -58.223,6.6711 -85.25,17.75 23.63,30.706 28.077,71.039 24.812,108.62 20.552,17.759 49.467,18.269 75.276,19.065 22.371,0.97102 48.03,1.1288 64.943,17.591 4.6936,4.7593 8.2934,10.742 10.906,16.969 14.262,2.3823 25.433,-10.328 29.469,-22.688 3.6081,-9.3574 5.739,-19.209 7.6562,-29.062 15.7,1.8215 35.244,1.4939 45.438,-12.5 8.2602,-13.506 1.338,-30.404 -7.4062,-41.844 -24.58,-33.637 -63.362,-53.847 -102.59,-65.562 -20.556,-5.7181 -41.87,-8.6367 -63.25,-8.3438 z"
             inkscape:connector-curvature="0"
             style="fill:#ffffff" />
          <path
             id="path12107"
             d="m 179.19,-148.72 c 176.46,-67.16 327.52,119.94 198.91,101.03 -3.69,19.44 -9.25,52.41 -28.35,52.533 -26.78,-56.69 -107.95,-17.88 -148.84,-50.512 3.5609,-48.795 -6.7521,-80.785 -21.717,-103.05 z"
             inkscape:connector-curvature="0"
             style="fill:#4d4d4d" />
        </g>
        <g
           id="g12109"
           transform="translate(0,-1074.3)">
          <path
             id="path12111"
             transform="matrix(1.5644,0,0,1.5644,-172.63,376.65)"
             d="m 262.86,-102.28 a 36.0715,36.0715 0 1 1 -72.143,0 36.0715,36.0715 0 1 1 72.143,0 z"
             inkscape:connector-curvature="0"
             style="fill:#ffffff" />
          <path
             id="path12113"
             transform="matrix(1.1287,0,0,1.1287,-89.547,337.81)"
             d="m 262.86,-102.28 a 36.0715,36.0715 0 1 1 -72.143,0 36.0715,36.0715 0 1 1 72.143,0 z"
             inkscape:connector-curvature="0"
             style="fill:#ffdd55" />
          <path
             id="path12115"
             transform="matrix(0.85149,0,0,0.85149,-36.676,309.45)"
             d="m 262.86,-102.28 a 36.0715,36.0715 0 1 1 -72.143,0 36.0715,36.0715 0 1 1 72.143,0 z"
             inkscape:connector-curvature="0"
             style="fill:#1a1a1a" />
        </g>
        <g
           id="g12117"
           transform="matrix(0.76257,-0.13002,0.13002,0.76257,-24.213,-726.15)">
          <path
             id="path12119"
             d="m 207.91,-19.75 c -14.519,2.8036 -22.821,25.424 -7.5625,32.969 15.099,8.9343 34.035,3.8699 49.031,-2.5625 4.9292,-2.835 12.039,-5.6024 13.281,-11.625 -1.0843,-6.2634 -9.1299,-3.8584 -13.333,-3 -10.383,1.7212 -23.554,4.2728 -31.698,-4.0625 -1.3748,-5.315 -2.3837,-12.59 -9.7188,-11.719 z"
             inkscape:connector-curvature="0" />
          <path
             id="path12121"
             d="m 208.16,-17.75 c -9.8308,2.5996 -18.126,15.317 -12.062,24.719 10.194,11.76 28.116,10.045 41.594,5.9375 8.23,-2.605 17,-5.9695 22.81,-12.531 1.21,-4.555 -5.14,-3.7044 -7.73,-2.8947 -11.82,1.9455 -26.91,5.4479 -36.52,-3.8865 -2.3292,-3.6591 -1.021,-11.064 -7.0938,-11.375 -0.33298,0.01275 -0.67,-0.02859 -1,0.03125 z"
             inkscape:connector-curvature="0"
             style="fill:#ffffff" />
          <path
             id="path12123"
             d="m 210.4,-12.263 c 1.6068,24.477 43.885,13.456 43.885,13.456 0,0 -30.489,18.896 -51.408,6.7279 -14.443,-8.4012 7.0644,-27.172 7.5232,-20.184 z"
             inkscape:connector-curvature="0"
             style="fill:#4d4d4d" />
        </g>
      </g>
    </g>
  </g>
  <metadata
     id="metadata4889">
    <rdf:RDF>
      <cc:Work>
        <dc:format>image/svg+xml</dc:format>
        <dc:type
           rdf:resource="http://purl.org/dc/dcmitype/StillImage" />
        <cc:license
           rdf:resource="http://creativecommons.org/publicdomain/zero/1.0/" />
        <dc:title>Carp icon</dc:title>
        <dc:creator>
          <cc:Agent>
            <dc:title>Étienne Deparis</dc:title>
          </cc:Agent>
        </dc:creator>
        <dc:contributor>
          <cc:Agent>
            <dc:title>bersace (Bouclier)
uroesch (Koinobori Grey)</dc:title>
          </cc:Agent>
        </dc:contributor>
      </cc:Work>
    </rdf:RDF>
  </metadata>
  <g
     id="g6020"
     transform="matrix(0.27520707,0,0,0.27520707,281.57379,417.08408)">
    <circle
       style="fill:#c32b2b;fill-rule:evenodd"
       id="path2762"
       cx="526.46667"
       cy="210.94501"
       r="313.14728" />
    <use
       x="0"
       y="0"
       width="744.09448"
       height="1052.3622"
       transform="matrix(-1,0,0,1,1052.9278,4.3476911e-7)"
       xlink:href="#path2760"
       id="use4539" />
    <path
       d="m 526.46888,524.09454 c -21.61,0 -68.16,-6.08 -88.9,-12.73 -9.9,-3.18 23.41,-169.07 63.89,-245.48 6.36,3.31 16.69,4.9 25.08,4.9 l -0.04,-123.23 c -8.28,0.07 -13.74,0.88 -18.02,2.64 -20.48,-42.68 -25.96,-171.5 -31.57,-247.150004 18.32,-4.682996 27.95,-5.245996 49.56,-5.245996 l 0.05,-60.61 c -206.32,5e-4 -373.81001,167.4499996 -373.81001,373.76 9e-4,206.31 167.44001,373.76 373.76001,373.76 m -41.02,-327.79 c -11.56,41.22 -117.37,224.93 -134.03,213.67 -16.66,-11.25 -32.18,-24.07 -46.35,-38.24 -56.68001,-56.68 -91.75001,-134.97 -91.75001,-221.4 0,-86.43 35.07,-164.71 91.75001,-221.39 29.73,-28.49 71.22,-55.950004 115.08,-73.210004 21.86,70.880004 63.69,149.520004 70.29,241.100004 -14.54,9.24 -24.93,34.56 -24.93,51.34 0,16.78 6.81,38.53 19.94,48.13 z"
       style="fill:#d7d7d7;fill-rule:evenodd"
       sodipodi:nodetypes="cscccccccsccssscccsc"
       id="path2760"
       inkscape:connector-curvature="0" />
    <path
       d="m 417.64888,-82.313464 -4,-11 c -247.26001,89.1980036 -283.31001,424.000004 -61,564.000004 43.59,-63.61 123.13,-179.5 124.43,-206.61 -100.69,118.16 -215.93,138.59 -238.47001,48.95 -42.511,-169.04 38.70001,-311.6100004 179.04001,-395.340004 z m 159,-14 c -35.66,-3.661 -62.31,0.579 -92.34,4.425 5.81,80.523004 5.37,161.050004 23.22,241.570004 -16.74,-31.97 -28.54,-127.22 -36.17,-256 41.87,-3.136 83.67,-6.192 105.29,10.001996 z m -13.41,253.830004 c 30.52,-145.57 50.25,-166.6000004 73.12,-234.760004 31.02,8.68 59.04,15.350004 150.71,114.080004 -60.78,-105.210004 -113.75,-113.420004 -155.82,-134.440004 -40.33,71.090004 -80.54,258.100004 -68.01,255.120004 z m -4.06,28.46 c 0,0 -20.69,14.61 -31.93,17.35 -0.28,12.28 -8.78,21.86 -19.06,35.85 35.23,23.55 71.03,-16.37 50.99,-53.2 z m 306.5,-130.29 c 189.95002,441.44 -421.14,739.14 -661.66001,340.88 236.40001,341.45 811.52003,141.13 661.66001,-340.88 z m -301.86,200.59 c 10.79,30.69 79.92,183.36 136.67,215.82 -22.38,4 206.35,-112.04 113.9,-380.85 -14.84,193.24 -240.26,153.77 -242.19,166.77 -1.66,11.22 21.48,-32.28 12.07,-69.11 1.32,38.01 -6.91,59.05 -20.45,67.37 z m -12.23,9.18 c -17.59,1.46 -35.19,2.97 -50.94,-4.77 -42.18,77.75 -63.02,161.26 -64,248 51.89,10.93 124.41,20.23 174.57,-2.93 4.42,-18.99 -15.37,-102.59 -30.37,-157.56 -98.06,56.49 -84.92,-39.94 -29.26,-82.74 z"
       style="opacity:0.25;fill:#000000;fill-rule:evenodd"
       sodipodi:nodetypes="ccccscccccccccccccccccccccscccccccc"
       id="path1953"
       inkscape:connector-curvature="0" />
    <path
       d="m 815.56888,-27.65546 c -325.44,-318.92 -790.210004,17.25 -619.42001,415.78 -198.9399936,-400.57 310.74001,-756.23 619.42001,-415.78 z m -237.58,-70.708004 c -9.68,82.498004 3.06,168.440004 -31.74,250.940004 -12.09,-3.47 -25.17,-3.02 -38.18,-2.83 5.81,-1.28 14.92,-4.38 36.15,-0.18 30.87,-73.77 21.54,-169.07 33.77,-247.930004 z m -99,183.850004 20.51,74.25 c -25.88,27.79 -46.44,61.97 -7.78,96.87 -34.9,81.83 -77.95,159.33 -137.18,214.96 51.37,-66.47 107.81,-131.18 131.52,-214.25 -21.89,-22.63 -32.63,-59.09 4.24,-100.41 0.93,-34.35 -8.85,-47.21 -11.31,-71.42 z m -28.28,428.51 c 37.37,11.72 72.78,24.54 172.53,1.41 -5.12,-89.51 -29.32,-171.16 -66.47,-247.49 28.98,78.26 60.06,162.87 59.4,241.13 -58.6,17.93 -103.18,20.84 -165.46,4.95 z m 245.36,-42.43 c 189.09,-88.66 149.95,-343.89 113.14,-397.39 70.55,136.22 11.08,333.2 -113.14,397.39 z m -169.7,-269.41 c -14.71,13.63 -25.09,27.61 -37.15,13.84 -11.88,-30.27 16.38,-55.41 43.51,-45.66 -9.02,13.24 -6.89,32.68 -6.36,31.82 z"
       style="opacity:0.75;fill:#ffffff;fill-rule:evenodd"
       sodipodi:nodetypes="ccccccccccccccccccccccccccc"
       id="path2865"
       inkscape:connector-curvature="0" />
    <g
       transform="translate(161.64887,-185.67546)"
       id="g7317">
      <circle
         transform="translate(-3.5,-2)"
         style="opacity:0.75;fill:#b1b1b1;fill-rule:evenodd"
         id="path4656"
         cx="127"
         cy="151.86218"
         r="14" />
      <path
         d="m 134.69,141.49 c 8.35,2.5 5.9,34.21 -20.31,19.12 9.39,3.97 24.16,-1.67 20.31,-19.12 z"
         style="opacity:0.25;fill:#000000;fill-rule:evenodd"
         sodipodi:nodetypes="ccc"
         id="path4658"
         inkscape:connector-curvature="0" />
      <path
         d="m 111,156.36 c 0.24,-2.82 1,-16.82 18.94,-19.12 -21.95,-6.26 -22.29,16.48 -18.94,19.12 z"
         style="opacity:0.75;fill:#ffffff;fill-rule:evenodd"
         sodipodi:nodetypes="ccc"
         id="path4660"
         inkscape:connector-curvature="0" />
    </g>
    <g
       transform="translate(247.94887,-245.07646)"
       id="g7338">
      <circle
         transform="translate(-3.5,-2)"
         style="opacity:0.75;fill:#b1b1b1;fill-rule:evenodd"
         id="path7340"
         cx="127"
         cy="151.86218"
         r="14" />
      <path
         d="m 134.69,141.49 c 8.35,2.5 5.9,34.21 -20.31,19.12 9.39,3.97 24.16,-1.67 20.31,-19.12 z"
         style="opacity:0.25;fill:#000000;fill-rule:evenodd"
         sodipodi:nodetypes="ccc"
         id="path7342"
         inkscape:connector-curvature="0" />
      <path
         d="m 111,156.36 c 0.24,-2.82 1,-16.82 18.94,-19.12 -21.95,-6.26 -22.29,16.48 -18.94,19.12 z"
         style="opacity:0.75;fill:#ffffff;fill-rule:evenodd"
         sodipodi:nodetypes="ccc"
         id="path7344"
         inkscape:connector-curvature="0" />
    </g>
    <g
       transform="translate(351.44888,-277.57546)"
       id="g7362">
      <circle
         transform="translate(-3.5,-2)"
         style="opacity:0.75;fill:#b1b1b1;fill-rule:evenodd"
         id="path7364"
         cx="127"
         cy="151.86218"
         r="14" />
      <path
         d="m 134.69,141.49 c 8.35,2.5 5.9,34.21 -20.31,19.12 9.39,3.97 24.16,-1.67 20.31,-19.12 z"
         style="opacity:0.25;fill:#000000;fill-rule:evenodd"
         sodipodi:nodetypes="ccc"
         id="path7366"
         inkscape:connector-curvature="0" />
      <path
         d="m 111,156.36 c 0.24,-2.82 1,-16.82 18.94,-19.12 -21.95,-6.26 -22.29,16.48 -18.94,19.12 z"
         style="opacity:0.75;fill:#ffffff;fill-rule:evenodd"
         sodipodi:nodetypes="ccc"
         id="path7368"
         inkscape:connector-curvature="0" />
    </g>
    <g
       transform="translate(458.94888,-275.07546)"
       id="g7378">
      <circle
         transform="translate(-3.5,-2)"
         style="opacity:0.75;fill:#b1b1b1;fill-rule:evenodd"
         id="path7380"
         cx="127"
         cy="151.86218"
         r="14" />
      <path
         d="m 134.69,141.49 c 8.35,2.5 5.9,34.21 -20.31,19.12 9.39,3.97 24.16,-1.67 20.31,-19.12 z"
         style="opacity:0.25;fill:#000000;fill-rule:evenodd"
         sodipodi:nodetypes="ccc"
         id="path7382"
         inkscape:connector-curvature="0" />
      <path
         d="m 111,156.36 c 0.24,-2.82 1,-16.82 18.94,-19.12 -21.95,-6.26 -22.29,16.48 -18.94,19.12 z"
         style="opacity:0.75;fill:#ffffff;fill-rule:evenodd"
         sodipodi:nodetypes="ccc"
         id="path7384"
         inkscape:connector-curvature="0" />
    </g>
    <g
       transform="translate(556.44888,-244.57646)"
       id="g7394">
      <circle
         transform="translate(-3.5,-2)"
         style="opacity:0.75;fill:#b1b1b1;fill-rule:evenodd"
         id="path7396"
         cx="127"
         cy="151.86218"
         r="14" />
      <path
         d="m 134.69,141.49 c 8.35,2.5 5.9,34.21 -20.31,19.12 9.39,3.97 24.16,-1.67 20.31,-19.12 z"
         style="opacity:0.25;fill:#000000;fill-rule:evenodd"
         sodipodi:nodetypes="ccc"
         id="path7398"
         inkscape:connector-curvature="0" />
      <path
         d="m 111,156.36 c 0.24,-2.82 1,-16.82 18.94,-19.12 -21.95,-6.26 -22.29,16.48 -18.94,19.12 z"
         style="opacity:0.75;fill:#ffffff;fill-rule:evenodd"
         sodipodi:nodetypes="ccc"
         id="path7400"
         inkscape:connector-curvature="0" />
    </g>
    <g
       transform="translate(696.44888,-115.57646)"
       id="g7418">
      <circle
         transform="translate(-3.5,-2)"
         style="opacity:0.75;fill:#b1b1b1;fill-rule:evenodd"
         id="path7420"
         cx="127"
         cy="151.86218"
         r="14" />
      <path
         d="m 134.69,141.49 c 8.35,2.5 5.9,34.21 -20.31,19.12 9.39,3.97 24.16,-1.67 20.31,-19.12 z"
         style="opacity:0.25;fill:#000000;fill-rule:evenodd"
         sodipodi:nodetypes="ccc"
         id="path7422"
         inkscape:connector-curvature="0" />
      <path
         d="m 111,156.36 c 0.24,-2.82 1,-16.82 18.94,-19.12 -21.95,-6.26 -22.29,16.48 -18.94,19.12 z"
         style="opacity:0.75;fill:#ffffff;fill-rule:evenodd"
         sodipodi:nodetypes="ccc"
         id="path7424"
         inkscape:connector-curvature="0" />
    </g>
    <g
       transform="translate(734.44888,-10.57546)"
       id="g7434">
      <circle
         transform="translate(-3.5,-2)"
         style="opacity:0.75;fill:#b1b1b1;fill-rule:evenodd"
         id="path7436"
         cx="127"
         cy="151.86218"
         r="14" />
      <path
         d="m 134.69,141.49 c 8.35,2.5 5.9,34.21 -20.31,19.12 9.39,3.97 24.16,-1.67 20.31,-19.12 z"
         style="opacity:0.25;fill:#000000;fill-rule:evenodd"
         sodipodi:nodetypes="ccc"
         id="path7438"
         inkscape:connector-curvature="0" />
      <path
         d="m 111,156.36 c 0.24,-2.82 1,-16.82 18.94,-19.12 -21.95,-6.26 -22.29,16.48 -18.94,19.12 z"
         style="opacity:0.75;fill:#ffffff;fill-rule:evenodd"
         sodipodi:nodetypes="ccc"
         id="path7440"
         inkscape:connector-curvature="0" />
    </g>
    <g
       transform="translate(737.44888,88.42454)"
       id="g7450">
      <circle
         transform="translate(-3.5,-2)"
         style="opacity:0.75;fill:#b1b1b1;fill-rule:evenodd"
         id="path7452"
         cx="127"
         cy="151.86218"
         r="14" />
      <path
         d="m 134.69,141.49 c 8.35,2.5 5.9,34.21 -20.31,19.12 9.39,3.97 24.16,-1.67 20.31,-19.12 z"
         style="opacity:0.25;fill:#000000;fill-rule:evenodd"
         sodipodi:nodetypes="ccc"
         id="path7454"
         inkscape:connector-curvature="0" />
      <path
         d="m 111,156.36 c 0.24,-2.82 1,-16.82 18.94,-19.12 -21.95,-6.26 -22.29,16.48 -18.94,19.12 z"
         style="opacity:0.75;fill:#ffffff;fill-rule:evenodd"
         sodipodi:nodetypes="ccc"
         id="path7456"
         inkscape:connector-curvature="0" />
    </g>
    <g
       transform="translate(716.94888,188.42454)"
       id="g7466">
      <circle
         transform="translate(-3.5,-2)"
         style="opacity:0.75;fill:#b1b1b1;fill-rule:evenodd"
         id="path7468"
         cx="127"
         cy="151.86218"
         r="14" />
      <path
         d="m 134.69,141.49 c 8.35,2.5 5.9,34.21 -20.31,19.12 9.39,3.97 24.16,-1.67 20.31,-19.12 z"
         style="opacity:0.25;fill:#000000;fill-rule:evenodd"
         sodipodi:nodetypes="ccc"
         id="path7470"
         inkscape:connector-curvature="0" />
      <path
         d="m 111,156.36 c 0.24,-2.82 1,-16.82 18.94,-19.12 -21.95,-6.26 -22.29,16.48 -18.94,19.12 z"
         style="opacity:0.75;fill:#ffffff;fill-rule:evenodd"
         sodipodi:nodetypes="ccc"
         id="path7472"
         inkscape:connector-curvature="0" />
    </g>
    <g
       transform="translate(668.44888,271.42454)"
       id="g7482">
      <circle
         transform="translate(-3.5,-2)"
         style="opacity:0.75;fill:#b1b1b1;fill-rule:evenodd"
         id="path7484"
         cx="127"
         cy="151.86218"
         r="14" />
      <path
         d="m 134.69,141.49 c 8.35,2.5 5.9,34.21 -20.31,19.12 9.39,3.97 24.16,-1.67 20.31,-19.12 z"
         style="opacity:0.25;fill:#000000;fill-rule:evenodd"
         sodipodi:nodetypes="ccc"
         id="path7486"
         inkscape:connector-curvature="0" />
      <path
         d="m 111,156.36 c 0.24,-2.82 1,-16.82 18.94,-19.12 -21.95,-6.26 -22.29,16.48 -18.94,19.12 z"
         style="opacity:0.75;fill:#ffffff;fill-rule:evenodd"
         sodipodi:nodetypes="ccc"
         id="path7488"
         inkscape:connector-curvature="0" />
    </g>
    <g
       transform="translate(597.44888,340.42454)"
       id="g7498">
      <circle
         transform="translate(-3.5,-2)"
         style="opacity:0.75;fill:#b1b1b1;fill-rule:evenodd"
         id="path7500"
         cx="127"
         cy="151.86218"
         r="14" />
      <path
         d="m 134.69,141.49 c 8.35,2.5 5.9,34.21 -20.31,19.12 9.39,3.97 24.16,-1.67 20.31,-19.12 z"
         style="opacity:0.25;fill:#000000;fill-rule:evenodd"
         sodipodi:nodetypes="ccc"
         id="path7502"
         inkscape:connector-curvature="0" />
      <path
         d="m 111,156.36 c 0.24,-2.82 1,-16.82 18.94,-19.12 -21.95,-6.26 -22.29,16.48 -18.94,19.12 z"
         style="opacity:0.75;fill:#ffffff;fill-rule:evenodd"
         sodipodi:nodetypes="ccc"
         id="path7504"
         inkscape:connector-curvature="0" />
    </g>
    <g
       transform="translate(492.44888,391.42454)"
       id="g7514">
      <circle
         transform="translate(-3.5,-2)"
         style="opacity:0.75;fill:#b1b1b1;fill-rule:evenodd"
         id="path7516"
         cx="127"
         cy="151.86218"
         r="14" />
      <path
         d="m 134.69,141.49 c 8.35,2.5 5.9,34.21 -20.31,19.12 9.39,3.97 24.16,-1.67 20.31,-19.12 z"
         style="opacity:0.25;fill:#000000;fill-rule:evenodd"
         sodipodi:nodetypes="ccc"
         id="path7518"
         inkscape:connector-curvature="0" />
      <path
         d="m 111,156.36 c 0.24,-2.82 1,-16.82 18.94,-19.12 -21.95,-6.26 -22.29,16.48 -18.94,19.12 z"
         style="opacity:0.75;fill:#ffffff;fill-rule:evenodd"
         sodipodi:nodetypes="ccc"
         id="path7520"
         inkscape:connector-curvature="0" />
    </g>
    <g
       transform="translate(376.94888,405.42454)"
       id="g7530">
      <circle
         transform="translate(-3.5,-2)"
         style="opacity:0.75;fill:#b1b1b1;fill-rule:evenodd"
         id="path7532"
         cx="127"
         cy="151.86218"
         r="14" />
      <path
         d="m 134.69,141.49 c 8.35,2.5 5.9,34.21 -20.31,19.12 9.39,3.97 24.16,-1.67 20.31,-19.12 z"
         style="opacity:0.25;fill:#000000;fill-rule:evenodd"
         sodipodi:nodetypes="ccc"
         id="path7534"
         inkscape:connector-curvature="0" />
      <path
         d="m 111,156.36 c 0.24,-2.82 1,-16.82 18.94,-19.12 -21.95,-6.26 -22.29,16.48 -18.94,19.12 z"
         style="opacity:0.75;fill:#ffffff;fill-rule:evenodd"
         sodipodi:nodetypes="ccc"
         id="path7536"
         inkscape:connector-curvature="0" />
    </g>
    <g
       transform="translate(267.44888,380.92454)"
       id="g7546">
      <circle
         transform="translate(-3.5,-2)"
         style="opacity:0.75;fill:#b1b1b1;fill-rule:evenodd"
         id="path7548"
         cx="127"
         cy="151.86218"
         r="14" />
      <path
         d="m 134.69,141.49 c 8.35,2.5 5.9,34.21 -20.31,19.12 9.39,3.97 24.16,-1.67 20.31,-19.12 z"
         style="opacity:0.25;fill:#000000;fill-rule:evenodd"
         sodipodi:nodetypes="ccc"
         id="path7550"
         inkscape:connector-curvature="0" />
      <path
         d="m 111,156.36 c 0.24,-2.82 1,-16.82 18.94,-19.12 -21.95,-6.26 -22.29,16.48 -18.94,19.12 z"
         style="opacity:0.75;fill:#ffffff;fill-rule:evenodd"
         sodipodi:nodetypes="ccc"
         id="path7552"
         inkscape:connector-curvature="0" />
    </g>
    <g
       transform="translate(122.44487,261.42454)"
       id="g7570">
      <circle
         transform="translate(-3.5,-2)"
         style="opacity:0.75;fill:#b1b1b1;fill-rule:evenodd"
         id="path7572"
         cx="127"
         cy="151.86218"
         r="14" />
      <path
         d="m 134.69,141.49 c 8.35,2.5 5.9,34.21 -20.31,19.12 9.39,3.97 24.16,-1.67 20.31,-19.12 z"
         style="opacity:0.25;fill:#000000;fill-rule:evenodd"
         sodipodi:nodetypes="ccc"
         id="path7574"
         inkscape:connector-curvature="0" />
      <path
         d="m 111,156.36 c 0.24,-2.82 1,-16.82 18.94,-19.12 -21.95,-6.26 -22.29,16.48 -18.94,19.12 z"
         style="opacity:0.75;fill:#ffffff;fill-rule:evenodd"
         sodipodi:nodetypes="ccc"
         id="path7576"
         inkscape:connector-curvature="0" />
    </g>
    <g
       transform="translate(76.944873,177.42454)"
       id="g7586">
      <circle
         transform="translate(-3.5,-2)"
         style="opacity:0.75;fill:#b1b1b1;fill-rule:evenodd"
         id="path7588"
         cx="127"
         cy="151.86218"
         r="14" />
      <path
         d="m 134.69,141.49 c 8.35,2.5 5.9,34.21 -20.31,19.12 9.39,3.97 24.16,-1.67 20.31,-19.12 z"
         style="opacity:0.25;fill:#000000;fill-rule:evenodd"
         sodipodi:nodetypes="ccc"
         id="path7590"
         inkscape:connector-curvature="0" />
      <path
         d="m 111,156.36 c 0.24,-2.82 1,-16.82 18.94,-19.12 -21.95,-6.26 -22.29,16.48 -18.94,19.12 z"
         style="opacity:0.75;fill:#ffffff;fill-rule:evenodd"
         sodipodi:nodetypes="ccc"
         id="path7592"
         inkscape:connector-curvature="0" />
    </g>
    <g
       transform="translate(58.944873,78.92454)"
       id="g7602">
      <circle
         transform="translate(-3.5,-2)"
         style="opacity:0.75;fill:#b1b1b1;fill-rule:evenodd"
         id="path7604"
         cx="127"
         cy="151.86218"
         r="14" />
      <path
         d="m 134.69,141.49 c 8.35,2.5 5.9,34.21 -20.31,19.12 9.39,3.97 24.16,-1.67 20.31,-19.12 z"
         style="opacity:0.25;fill:#000000;fill-rule:evenodd"
         sodipodi:nodetypes="ccc"
         id="path7606"
         inkscape:connector-curvature="0" />
      <path
         d="m 111,156.36 c 0.24,-2.82 1,-16.82 18.94,-19.12 -21.95,-6.26 -22.29,16.48 -18.94,19.12 z"
         style="opacity:0.75;fill:#ffffff;fill-rule:evenodd"
         sodipodi:nodetypes="ccc"
         id="path7608"
         inkscape:connector-curvature="0" />
    </g>
    <g
       transform="translate(67.444873,-12.07546)"
       id="g7618">
      <circle
         transform="translate(-3.5,-2)"
         style="opacity:0.75;fill:#b1b1b1;fill-rule:evenodd"
         id="path7620"
         cx="127"
         cy="151.86218"
         r="14" />
      <path
         d="m 134.69,141.49 c 8.35,2.5 5.9,34.21 -20.31,19.12 9.39,3.97 24.16,-1.67 20.31,-19.12 z"
         style="opacity:0.25;fill:#000000;fill-rule:evenodd"
         sodipodi:nodetypes="ccc"
         id="path7622"
         inkscape:connector-curvature="0" />
      <path
         d="m 111,156.36 c 0.24,-2.82 1,-16.82 18.94,-19.12 -21.95,-6.26 -22.29,16.48 -18.94,19.12 z"
         style="opacity:0.75;fill:#ffffff;fill-rule:evenodd"
         sodipodi:nodetypes="ccc"
         id="path7624"
         inkscape:connector-curvature="0" />
    </g>
    <g
       transform="translate(98.944873,-106.57646)"
       id="g7642">
      <circle
         transform="translate(-3.5,-2)"
         style="opacity:0.75;fill:#b1b1b1;fill-rule:evenodd"
         id="path7644"
         cx="127"
         cy="151.86218"
         r="14" />
      <path
         d="m 134.69,141.49 c 8.35,2.5 5.9,34.21 -20.31,19.12 9.39,3.97 24.16,-1.67 20.31,-19.12 z"
         style="opacity:0.25;fill:#000000;fill-rule:evenodd"
         sodipodi:nodetypes="ccc"
         id="path7646"
         inkscape:connector-curvature="0" />
      <path
         d="m 111,156.36 c 0.24,-2.82 1,-16.82 18.94,-19.12 -21.95,-6.26 -22.29,16.48 -18.94,19.12 z"
         style="opacity:0.75;fill:#ffffff;fill-rule:evenodd"
         sodipodi:nodetypes="ccc"
         id="path7648"
         inkscape:connector-curvature="0" />
    </g>
    <g
       transform="translate(636.44888,-190.57646)"
       id="g7658">
      <circle
         transform="translate(-3.5,-2)"
         style="opacity:0.75;fill:#b1b1b1;fill-rule:evenodd"
         id="path7660"
         cx="127"
         cy="151.86218"
         r="14" />
      <path
         d="m 134.69,141.49 c 8.35,2.5 5.9,34.21 -20.31,19.12 9.39,3.97 24.16,-1.67 20.31,-19.12 z"
         style="opacity:0.25;fill:#000000;fill-rule:evenodd"
         sodipodi:nodetypes="ccc"
         id="path7662"
         inkscape:connector-curvature="0" />
      <path
         d="m 111,156.36 c 0.24,-2.82 1,-16.82 18.94,-19.12 -21.95,-6.26 -22.29,16.48 -18.94,19.12 z"
         style="opacity:0.75;fill:#ffffff;fill-rule:evenodd"
         sodipodi:nodetypes="ccc"
         id="path7664"
         inkscape:connector-curvature="0" />
    </g>
    <g
       transform="translate(190.44487,332.42454)"
       id="g7666">
      <circle
         transform="translate(-3.5,-2)"
         style="opacity:0.75;fill:#b1b1b1;fill-rule:evenodd"
         id="path7668"
         cx="127"
         cy="151.86218"
         r="14" />
      <path
         d="m 134.69,141.49 c 8.35,2.5 5.9,34.21 -20.31,19.12 9.39,3.97 24.16,-1.67 20.31,-19.12 z"
         style="opacity:0.25;fill:#000000;fill-rule:evenodd"
         sodipodi:nodetypes="ccc"
         id="path7670"
         inkscape:connector-curvature="0" />
      <path
         d="m 111,156.36 c 0.24,-2.82 1,-16.82 18.94,-19.12 -21.95,-6.26 -22.29,16.48 -18.94,19.12 z"
         style="opacity:0.75;fill:#ffffff;fill-rule:evenodd"
         sodipodi:nodetypes="ccc"
         id="path7672"
         inkscape:connector-curvature="0" />
    </g>
  </g>
</svg>
