<?xml version="1.0" encoding="UTF-8" standalone="no"?>
<svg
   xmlns:dc="http://purl.org/dc/elements/1.1/"
   xmlns:cc="http://creativecommons.org/ns#"
   xmlns:rdf="http://www.w3.org/1999/02/22-rdf-syntax-ns#"
   xmlns:svg="http://www.w3.org/2000/svg"
   xmlns="http://www.w3.org/2000/svg"
   xmlns:xlink="http://www.w3.org/1999/xlink"
   xmlns:sodipodi="http://sodipodi.sourceforge.net/DTD/sodipodi-0.dtd"
   xmlns:inkscape="http://www.inkscape.org/namespaces/inkscape"
   id="svg2"
   viewBox="0 0 799.99998 799.99997"
   version="1.1"
   sodipodi:docname="carp_icon.svg"
   width="800"
   height="800"
   inkscape:version="0.92.2 5c3e80d, 2017-08-06">
  <title
     id="title1381">Carp icon</title>
  <defs
     id="defs4894" />
  <sodipodi:namedview
     pagecolor="#ffffff"
     bordercolor="#666666"
     borderopacity="1"
     objecttolerance="10"
     gridtolerance="10"
     guidetolerance="10"
     inkscape:pageopacity="0"
     inkscape:pageshadow="2"
     inkscape:window-width="1920"
     inkscape:window-height="1055"
     id="namedview4892"
     showgrid="false"
     fit-margin-top="0"
     fit-margin-left="0"
     fit-margin-right="0"
     fit-margin-bottom="0"
     inkscape:zoom="1.3026802"
     inkscape:cx="362.09736"
     inkscape:cy="425.32145"
     inkscape:window-x="0"
     inkscape:window-y="25"
     inkscape:window-maximized="1"
     inkscape:current-layer="svg2"
     showborder="true" />
  <g
     id="g11467"
     transform="translate(14.657999,1178.5299)">
    <g
       id="g12099">
      <g
         id="g4527">
        <path
           id="path11785"
           d="m 690.93,-932.53 c -32.122,37.423 -75.123,65.742 -123.16,77.906 -31.059,7.9987 -63.32,11.674 -95.438,11.125 -50.683,-3.2649 -94.79,-30.868 -139.43,-52.566 -34.337,-17.334 -70.965,-31.737 -109.92,-32.403 -44.774,-1.7119 -90.213,1.2252 -133.46,13.222 -12.112,3.8419 -25.572,7.7931 -32.823,19.059 -17.687,24.376 -20.359,55.874 -21.344,85.281 -0.21373,30.472 2.103,43.863 14.804,71.899 3.0752,6.1037 6.9729,12.384 13.303,15.512 0.83715,3.1188 6.563,1.9757 9.75,2.0625 10.173,-1.2265 18.022,-9.149 27.625,-12.25 53.121,-3.4575 106.62,-1.4602 159.45,7.7304 48.254,8.3858 93.067,29.218 137.97,48.11 34.723,14.709 72.571,24.434 110.52,19.849 77.695,-7.0024 156.15,-33.22 214.35,-86.444 8.2324,-7.5616 15.949,-15.639 23.281,-24.094 -32.968,-11.221 -65.938,-22.437 -98.906,-33.656 15.661,-43.455 31.967,-86.72 47.224,-130.29 2.5359,-8.0163 -0.39684,-2.1736 -3.8182,-0.0497 z"
           inkscape:connector-curvature="0"
           style="fill:#f2f2f2" />
        <path
           id="path11789"
           transform="matrix(1.2222,0,0,1.0192,52.32,-741.3)"
           d="m 39.396,-70.927 a 22.7285,78.793733 0 1 1 -45.457,0 22.7285,78.793733 0 1 1 45.457,0 z"
           inkscape:connector-curvature="0"
           style="fill:#cccccc" />
        <g
           id="g11793"
           transform="translate(0,-1074.3)">
          <path
             id="path11795"
             d="m 669.61,174.94 c -42.881,37.852 -98.972,58.993 -155.83,63.222 23.867,83.667 20.13,82.808 -2.9466,166.97 75.321,-7.4822 151.15,-33.81 206.94,-86.5 1.7223,-2.8861 10.9,-7.7878 7.1378,-9.6129 -30.755,-10.461 -61.507,-20.93 -92.263,-31.387 12.619,-34.441 25.182,-68.904 37.719,-103.38 l -0.73715,0.67572 -0.0128,0.0118 z"
             inkscape:connector-curvature="0"
             style="fill:#4d4d4d" />
          <path
             id="path11797"
             d="m 546.43,257.36 c 43.412,0 96.429,-51.429 96.429,-51.429 0,0 -57.232,70.714 -97.857,70.714 -14.286,0 -12.857,-19.286 1.4286,-19.286 z"
             inkscape:connector-curvature="0"
             style="fill:#ffffff" />
          <path
             id="path11799"
             d="m 562.89,347.42 c 39.44,18.14 109.1,-6.4292 109.1,-6.4292 0,0 -81.545,40.329 -118.45,23.354 -12.979,-5.9695 -3.622,-22.894 9.3567,-16.924 z"
             inkscape:connector-curvature="0"
             style="fill:#ffffff" />
          <path
             id="path11801"
             d="m 538.6,328.85 c 39.44,18.14 109.1,-6.4292 109.1,-6.4292 0,0 -81.545,40.329 -118.45,23.354 -12.979,-5.9695 -3.622,-22.894 9.3567,-16.924 z"
             inkscape:connector-curvature="0"
             style="fill:#ffffff" />
          <path
             id="path11803"
             d="m 530.19,316.33 c 41.438,12.942 107.38,-20.342 107.38,-20.342 0,0 -75.712,50.436 -114.49,38.325 -13.636,-4.259 -6.5228,-22.242 7.1132,-17.983 z"
             inkscape:connector-curvature="0"
             style="fill:#ffffff" />
          <path
             id="path11805"
             d="m 531.43,293.08 c 43.412,0 96.429,-51.429 96.429,-51.429 0,0 -57.232,70.714 -97.857,70.714 -14.286,0 -12.857,-19.286 1.4286,-19.286 z"
             inkscape:connector-curvature="0"
             style="fill:#ffffff" />
          <path
             id="path11807"
             d="m 530.39,310.02 c 43.302,3.0852 99.84,-44.446 99.84,-44.446 0,0 -62.113,66.468 -102.64,63.581 -14.25,-1.0152 -11.454,-20.151 2.7955,-19.135 z"
             inkscape:connector-curvature="0"
             style="fill:#ffffff" />
        </g>
        <g
           id="g11811"
           transform="translate(0,-1074.3)">
          <g
             id="g11813"
             transform="translate(0,2.7085)">
            <g
               id="g11815"
               transform="matrix(0.46848,0,0,0.46848,474.39,92.24)">
              <path
                 id="path11817"
                 transform="matrix(1.1994,0,0,1.1994,-36.458,-82.218)"
                 d="m 240,412.36 a 57.145,57.145 0 1 1 -114.29,0 57.145,57.145 0 1 1 114.29,0 z"
                 inkscape:connector-curvature="0" />
              <path
                 id="path11819"
                 transform="matrix(1.1556,0,0,1.1556,-28.45,-64.157)"
                 d="m 240,412.36 a 57.145,57.145 0 1 1 -114.29,0 57.145,57.145 0 1 1 114.29,0 z"
                 inkscape:connector-curvature="0"
                 style="fill:#ffffff" />
              <path
                 id="path11821"
                 transform="matrix(1.0088,0,0,1.0088,-1.6112,-3.6335)"
                 d="m 240,412.36 a 57.145,57.145 0 1 1 -114.29,0 57.145,57.145 0 1 1 114.29,0 z"
                 inkscape:connector-curvature="0"
                 style="fill:#4d4d4d" />
            </g>
            <g
               id="g11823"
               transform="matrix(0.46848,0,0,0.46848,474.39,155.37)">
              <path
                 id="path11825"
                 transform="matrix(1.1994,0,0,1.1994,-36.458,-82.218)"
                 d="m 240,412.36 a 57.145,57.145 0 1 1 -114.29,0 57.145,57.145 0 1 1 114.29,0 z"
                 inkscape:connector-curvature="0" />
              <path
                 id="path11827"
                 transform="matrix(1.1556,0,0,1.1556,-28.45,-64.157)"
                 d="m 240,412.36 a 57.145,57.145 0 1 1 -114.29,0 57.145,57.145 0 1 1 114.29,0 z"
                 inkscape:connector-curvature="0"
                 style="fill:#ffffff" />
              <path
                 id="path11829"
                 transform="matrix(1.0088,0,0,1.0088,-1.6112,-3.6335)"
                 d="m 240,412.36 a 57.145,57.145 0 1 1 -114.29,0 57.145,57.145 0 1 1 114.29,0 z"
                 inkscape:connector-curvature="0"
                 style="fill:#4d4d4d" />
            </g>
          </g>
          <g
             id="g11831">
            <g
               id="g11833">
              <g
                 id="g11835">
                <path
                   id="path11837"
                   d="m 540.69,227.5 c -11.187,1.8964 -22.514,3.2654 -33.969,4.1875 -7.2054,5.8878 -11.781,14.844 -11.781,24.875 0,17.732 14.361,32.125 32.094,32.125 17.732,0 32.094,-14.392 32.094,-32.125 0,-12.845 -7.5395,-23.929 -18.438,-29.062 z"
                   inkscape:connector-curvature="0" />
                <path
                   id="path11839"
                   d="m 538.56,227.88 c -9.7685,1.5921 -19.653,2.7736 -29.625,3.625 -7.7673,5.6199 -12.844,14.742 -12.844,25.062 0,17.085 13.853,30.938 30.938,30.938 17.085,0 30.938,-13.853 30.938,-30.938 0,-13.002 -8.0424,-24.111 -19.406,-28.688 z"
                   inkscape:connector-curvature="0"
                   style="fill:#ffffff" />
                <path
                   id="path11841"
                   d="m 526.91,229.56 c -2.1142,0.27388 -4.2202,0.54146 -6.3438,0.78125 -11.789,2.8997 -20.531,13.535 -20.531,26.219 0,14.915 12.085,27 27,27 14.915,0 27,-12.085 27,-27 0,-14.915 -12.085,-27 -27,-27 -0.0424,0 -0.0827,-1.9e-4 -0.125,0 z"
                   inkscape:connector-curvature="0"
                   style="fill:#4d4d4d" />
              </g>
            </g>
            <g
               id="g11843"
               transform="matrix(0.46848,0,0,0.46848,441.37,126.51)">
              <path
                 id="path11845"
                 transform="matrix(1.1994,0,0,1.1994,-36.458,-82.218)"
                 d="m 240,412.36 a 57.145,57.145 0 1 1 -114.29,0 57.145,57.145 0 1 1 114.29,0 z"
                 inkscape:connector-curvature="0" />
              <path
                 id="path11847"
                 transform="matrix(1.1556,0,0,1.1556,-28.45,-64.157)"
                 d="m 240,412.36 a 57.145,57.145 0 1 1 -114.29,0 57.145,57.145 0 1 1 114.29,0 z"
                 inkscape:connector-curvature="0"
                 style="fill:#ffffff" />
              <path
                 id="path11849"
                 transform="matrix(1.0088,0,0,1.0088,-1.6112,-3.6335)"
                 d="m 240,412.36 a 57.145,57.145 0 1 1 -114.29,0 57.145,57.145 0 1 1 114.29,0 z"
                 inkscape:connector-curvature="0"
                 style="fill:#4d4d4d" />
            </g>
            <g
               id="g11851">
              <path
                 id="path11853"
                 d="m 527.03,350.72 c -17.732,0 -32.094,14.361 -32.094,32.094 0,14.348 9.3893,26.509 22.375,30.625 0.01,0.003 0.0217,-0.003 0.0312,0 9.1186,-0.99842 18.252,-2.289 27.375,-3.8438 8.6792,-5.7475 14.406,-15.592 14.406,-26.781 0,-17.732 -14.361,-32.094 -32.094,-32.094 z"
                 inkscape:connector-curvature="0" />
              <path
                 id="path11855"
                 d="m 527.03,351.91 c -17.085,0 -30.938,13.821 -30.938,30.906 0,14.849 10.482,27.258 24.438,30.25 7.0407,-0.81931 14.082,-1.818 21.125,-2.9688 9.7099,-5.2184 16.312,-15.486 16.312,-27.281 0,-17.085 -13.853,-30.906 -30.938,-30.906 z"
                 inkscape:connector-curvature="0"
                 style="fill:#ffffff" />
              <path
                 id="path11857"
                 transform="matrix(0.4726,0,0,0.4726,440.61,187.94)"
                 d="m 240,412.36 a 57.145,57.145 0 1 1 -114.29,0 57.145,57.145 0 1 1 114.29,0 z"
                 inkscape:connector-curvature="0"
                 style="fill:#4d4d4d" />
            </g>
          </g>
          <g
             id="g11859">
            <g
               id="g11861"
               transform="matrix(0.46848,0,0,0.46848,409.46,94.24)">
              <path
                 id="path11863"
                 transform="matrix(1.1994,0,0,1.1994,-36.458,-82.218)"
                 d="m 240,412.36 a 57.145,57.145 0 1 1 -114.29,0 57.145,57.145 0 1 1 114.29,0 z"
                 inkscape:connector-curvature="0" />
              <path
                 id="path11865"
                 transform="matrix(1.1556,0,0,1.1556,-28.45,-64.157)"
                 d="m 240,412.36 a 57.145,57.145 0 1 1 -114.29,0 57.145,57.145 0 1 1 114.29,0 z"
                 inkscape:connector-curvature="0"
                 style="fill:#ffffff" />
              <path
                 id="path11867"
                 transform="matrix(1.0088,0,0,1.0088,-1.6112,-3.6335)"
                 d="m 240,412.36 a 57.145,57.145 0 1 1 -114.29,0 57.145,57.145 0 1 1 114.29,0 z"
                 inkscape:connector-curvature="0"
                 style="fill:#4d4d4d" />
            </g>
            <g
               id="g11869"
               transform="matrix(0.46848,0,0,0.46848,409.46,157.37)">
              <path
                 id="path11871"
                 transform="matrix(1.1994,0,0,1.1994,-36.458,-82.218)"
                 d="m 240,412.36 a 57.145,57.145 0 1 1 -114.29,0 57.145,57.145 0 1 1 114.29,0 z"
                 inkscape:connector-curvature="0" />
              <path
                 id="path11873"
                 transform="matrix(1.1556,0,0,1.1556,-28.45,-64.157)"
                 d="m 240,412.36 a 57.145,57.145 0 1 1 -114.29,0 57.145,57.145 0 1 1 114.29,0 z"
                 inkscape:connector-curvature="0"
                 style="fill:#ffffff" />
              <path
                 id="path11875"
                 transform="matrix(1.0088,0,0,1.0088,-1.6112,-3.6335)"
                 d="m 240,412.36 a 57.145,57.145 0 1 1 -114.29,0 57.145,57.145 0 1 1 114.29,0 z"
                 inkscape:connector-curvature="0"
                 style="fill:#4d4d4d" />
            </g>
            <g
               id="g11877">
              <path
                 id="path11879"
                 d="m 495.12,381.56 c -17.67,0 -31.993,14.292 -32.094,31.938 12.555,1.8219 25.593,2.4002 39.5,1.3125 8.1951,-0.64093 16.421,-1.5158 24.656,-2.5938 -0.76656,-17.052 -14.821,-30.656 -32.062,-30.656 z"
                 inkscape:connector-curvature="0" />
              <path
                 id="path11881"
                 d="m 495.12,382.75 c -17.074,0 -30.921,13.836 -30.938,30.906 12.201,1.6924 24.861,2.2107 38.344,1.1562 7.8122,-0.61099 15.65,-1.4299 23.5,-2.4375 -0.69,-16.47 -14.26,-29.62 -30.91,-29.62 z"
                 inkscape:connector-curvature="0"
                 style="fill:#ffffff" />
              <path
                 id="path11883"
                 d="m 495.12,386.69 c -14.915,0 -27,12.085 -27,27 0,0.15881 -0.003,0.31059 0,0.46875 10.985,1.281 22.372,1.5974 34.406,0.65625 6.5043,-0.50869 13.029,-1.1551 19.562,-1.9375 -0.42592,-14.542 -12.323,-26.188 -26.969,-26.188 z"
                 inkscape:connector-curvature="0"
                 style="fill:#4d4d4d" />
            </g>
            <g
               id="g11885">
              <g
                 id="g11887">
                <path
                   id="path11889"
                   d="m 524.5,229.88 c -12.549,1.5448 -25.264,2.4947 -38.125,3.0312 -8.3551,0.34857 -16.586,-0.0825 -24.719,-1.125 3.3768,14.116 16.068,24.625 31.219,24.625 15.826,0 28.98,-11.463 31.625,-26.531 z"
                   inkscape:connector-curvature="0" />
                <path
                   id="path11891"
                   d="m 523.28,230.03 c -12.152,1.457 -24.462,2.3558 -36.906,2.875 -7.9264,0.33068 -15.744,-0.0411 -23.469,-0.96875 3.4001,13.392 15.519,23.281 29.969,23.281 15.124,0 27.715,-10.845 30.406,-25.188 z"
                   inkscape:connector-curvature="0"
                   style="fill:#ffffff" />
                <path
                   id="path11893"
                   d="m 519.16,230.5 c -10.809,1.1824 -21.744,1.9458 -32.781,2.4062 -6.4887,0.2707 -12.899,0.0554 -19.25,-0.53125 3.4398,10.959 13.656,18.906 25.75,18.906 12.773,0 23.471,-8.8665 26.281,-20.781 z"
                   inkscape:connector-curvature="0"
                   style="fill:#4d4d4d" />
              </g>
            </g>
          </g>
          <path
             id="path11895"
             d="m 460.97,350.75 c -17.732,0 -32.094,14.392 -32.094,32.125 0,11.083 5.6156,20.855 14.156,26.625 0.0123,0.003 0.0189,0.0282 0.0312,0.0312 8.1854,2.0462 16.525,3.6272 25.094,4.625 14.272,-3.2642 24.938,-16.02 24.938,-31.281 0,-17.732 -14.392,-32.125 -32.125,-32.125 z"
             inkscape:connector-curvature="0" />
          <path
             id="path11897"
             d="m 460.97,351.94 c -17.085,0 -30.938,13.853 -30.938,30.938 0,12.098 6.9729,22.54 17.094,27.625 5.5578,1.2772 11.205,2.3258 16.938,3.125 15.643,-1.542 27.844,-14.702 27.844,-30.75 0,-17.085 -13.853,-30.938 -30.938,-30.938 z"
             inkscape:connector-curvature="0"
             style="fill:#ffffff" />
          <g
             id="g11899">
            <g
               id="g11901">
              <path
                 id="path11903"
                 d="m 444.97,228.78 c -9.6096,5.5483 -16.094,15.919 -16.094,27.812 0,17.732 14.361,32.125 32.094,32.125 17.732,0 32.125,-14.392 32.125,-32.125 0,-9.3255 -3.9949,-17.697 -10.344,-23.562 -12.853,0.20148 -25.414,-1.4026 -37.781,-4.25 z"
                 inkscape:connector-curvature="0" />
              <path
                 id="path11905"
                 d="m 446.69,229.19 c -9.8814,5.1647 -16.656,15.484 -16.656,27.406 0,17.085 13.853,30.938 30.938,30.938 17.085,0 30.938,-13.853 30.938,-30.938 0,-9.4433 -4.2362,-17.888 -10.906,-23.562 -11.646,0.0373 -23.066,-1.3671 -34.312,-3.8438 z"
                 inkscape:connector-curvature="0"
                 style="fill:#ffffff" />
              <path
                 id="path11907"
                 d="m 453.72,230.59 c -11.391,3.1694 -19.75,13.598 -19.75,26 0,14.915 12.085,27 27,27 14.915,0 27.031,-12.085 27.031,-27 0,-10.254 -5.7378,-19.177 -14.156,-23.75 -6.7752,-0.31821 -13.487,-1.0671 -20.125,-2.25 z"
                 inkscape:connector-curvature="0"
                 style="fill:#4d4d4d" />
            </g>
            <g
               id="g11909"
               transform="matrix(0.46848,0,0,0.46848,375.32,126.55)">
              <path
                 id="path11911"
                 transform="matrix(1.1994,0,0,1.1994,-36.458,-82.218)"
                 d="m 240,412.36 a 57.145,57.145 0 1 1 -114.29,0 57.145,57.145 0 1 1 114.29,0 z"
                 inkscape:connector-curvature="0" />
              <path
                 id="path11913"
                 transform="matrix(1.1556,0,0,1.1556,-28.45,-64.157)"
                 d="m 240,412.36 a 57.145,57.145 0 1 1 -114.29,0 57.145,57.145 0 1 1 114.29,0 z"
                 inkscape:connector-curvature="0"
                 style="fill:#ffffff" />
              <path
                 id="path11915"
                 transform="matrix(1.0088,0,0,1.0088,-1.6112,-3.6335)"
                 d="m 240,412.36 a 57.145,57.145 0 1 1 -114.29,0 57.145,57.145 0 1 1 114.29,0 z"
                 inkscape:connector-curvature="0"
                 style="fill:#4d4d4d" />
            </g>
            <path
               id="path11917"
               transform="matrix(0.4726,0,0,0.4726,374.56,187.98)"
               d="m 240,412.36 a 57.145,57.145 0 1 1 -114.29,0 57.145,57.145 0 1 1 114.29,0 z"
               inkscape:connector-curvature="0"
               style="fill:#4d4d4d" />
          </g>
          <g
             id="g11919">
            <g
               id="g11921"
               transform="matrix(0.46848,0,0,0.46848,343.41,94.24)">
              <path
                 id="path11923"
                 transform="matrix(1.1994,0,0,1.1994,-36.458,-82.218)"
                 d="m 240,412.36 a 57.145,57.145 0 1 1 -114.29,0 57.145,57.145 0 1 1 114.29,0 z"
                 inkscape:connector-curvature="0" />
              <path
                 id="path11925"
                 transform="matrix(1.1556,0,0,1.1556,-28.45,-64.157)"
                 d="m 240,412.36 a 57.145,57.145 0 1 1 -114.29,0 57.145,57.145 0 1 1 114.29,0 z"
                 inkscape:connector-curvature="0"
                 style="fill:#ffffff" />
              <path
                 id="path11927"
                 transform="matrix(1.0088,0,0,1.0088,-1.6112,-3.6335)"
                 d="m 240,412.36 a 57.145,57.145 0 1 1 -114.29,0 57.145,57.145 0 1 1 114.29,0 z"
                 inkscape:connector-curvature="0"
                 style="fill:#4d4d4d" />
            </g>
            <g
               id="g11929"
               transform="matrix(0.46848,0,0,0.46848,343.41,157.37)">
              <path
                 id="path11931"
                 transform="matrix(1.1994,0,0,1.1994,-36.458,-82.218)"
                 d="m 240,412.36 a 57.145,57.145 0 1 1 -114.29,0 57.145,57.145 0 1 1 114.29,0 z"
                 inkscape:connector-curvature="0" />
              <path
                 id="path11933"
                 transform="matrix(1.1556,0,0,1.1556,-28.45,-64.157)"
                 d="m 240,412.36 a 57.145,57.145 0 1 1 -114.29,0 57.145,57.145 0 1 1 114.29,0 z"
                 inkscape:connector-curvature="0"
                 style="fill:#ffffff" />
              <path
                 id="path11935"
                 transform="matrix(1.0088,0,0,1.0088,-1.6112,-3.6335)"
                 d="m 240,412.36 a 57.145,57.145 0 1 1 -114.29,0 57.145,57.145 0 1 1 114.29,0 z"
                 inkscape:connector-curvature="0"
                 style="fill:#4d4d4d" />
            </g>
            <g
               id="g11937">
              <path
                 id="path11939"
                 d="m 429.09,381.56 c -11.172,0 -20.999,5.7181 -26.75,14.375 19.395,7.7377 38.493,14.121 58.844,17.281 C 460.93292,395.7 446.666,381.56 429.09,381.56 Z"
                 inkscape:connector-curvature="0" />
              <path
                 id="path11941"
                 d="m 429.09,382.75 c -10.678,0 -20.097,5.3962 -25.656,13.625 18.643,7.3925 37.036,13.497 56.562,16.656 -0.35,-16.78 -14.04,-30.28 -30.91,-30.28 z"
                 inkscape:connector-curvature="0"
                 style="fill:#ffffff" />
              <path
                 id="path11943"
                 d="m 429.09,386.69 c -8.9925,0 -16.967,4.3969 -21.875,11.156 16.098,6.2355 32.085,11.431 48.844,14.5 C 455.36646,398.048 443.56,386.69 429.09,386.69 Z"
                 inkscape:connector-curvature="0"
                 style="fill:#4d4d4d" />
            </g>
            <g
               id="g11945">
              <path
                 id="path11947"
                 d="m 397.12,212.12 c -1.5364,3.7511 -2.4062,7.852 -2.4062,12.156 0,17.732 14.392,32.125 32.125,32.125 15.316,0 28.106,-10.744 31.312,-25.094 -20.844,-3.1393 -41.063,-10.319 -61.031,-19.188 z"
                 inkscape:connector-curvature="0" />
              <path
                 id="path11949"
                 d="m 398.22,212.59 c -1.4771,3.6107 -2.3125,7.5451 -2.3125,11.688 0,17.085 13.853,30.938 30.938,30.938 14.737,0 27.046,-10.296 30.156,-24.094 -20.057,-3.167 -39.537,-10.049 -58.781,-18.531 z"
                 inkscape:connector-curvature="0"
                 style="fill:#ffffff" />
              <path
                 id="path11951"
                 d="m 401.78,214.16 c -1.2676,3.1292 -1.9375,6.5412 -1.9375,10.125 0,14.915 12.085,27 27,27 12.785,0 23.483,-8.8815 26.281,-20.812 -17.463,-3.1756 -34.501,-9.0819 -51.344,-16.312 z"
                 inkscape:connector-curvature="0"
                 style="fill:#4d4d4d" />
            </g>
          </g>
          <g
             id="g11953">
            <g
               id="g11955"
               transform="matrix(0.46848,0,0,0.46848,310.39,63.25)">
              <path
                 id="path11957"
                 transform="matrix(1.1994,0,0,1.1994,-36.458,-82.218)"
                 d="m 240,412.36 a 57.145,57.145 0 1 1 -114.29,0 57.145,57.145 0 1 1 114.29,0 z"
                 inkscape:connector-curvature="0" />
              <path
                 id="path11959"
                 transform="matrix(1.1556,0,0,1.1556,-28.45,-64.157)"
                 d="m 240,412.36 a 57.145,57.145 0 1 1 -114.29,0 57.145,57.145 0 1 1 114.29,0 z"
                 inkscape:connector-curvature="0"
                 style="fill:#ffffff" />
              <path
                 id="path11961"
                 transform="matrix(1.0088,0,0,1.0088,-1.6112,-3.6335)"
                 d="m 240,412.36 a 57.145,57.145 0 1 1 -114.29,0 57.145,57.145 0 1 1 114.29,0 z"
                 inkscape:connector-curvature="0"
                 style="fill:#4d4d4d" />
            </g>
            <g
               id="g11963"
               transform="matrix(0.46848,0,0,0.46848,310.39,126.38)">
              <path
                 id="path11965"
                 transform="matrix(1.1994,0,0,1.1994,-36.458,-82.218)"
                 d="m 240,412.36 a 57.145,57.145 0 1 1 -114.29,0 57.145,57.145 0 1 1 114.29,0 z"
                 inkscape:connector-curvature="0" />
              <path
                 id="path11967"
                 transform="matrix(1.1556,0,0,1.1556,-28.45,-64.157)"
                 d="m 240,412.36 a 57.145,57.145 0 1 1 -114.29,0 57.145,57.145 0 1 1 114.29,0 z"
                 inkscape:connector-curvature="0"
                 style="fill:#ffffff" />
              <path
                 id="path11969"
                 transform="matrix(1.0088,0,0,1.0088,-1.6112,-3.6335)"
                 d="m 240,412.36 a 57.145,57.145 0 1 1 -114.29,0 57.145,57.145 0 1 1 114.29,0 z"
                 inkscape:connector-curvature="0"
                 style="fill:#4d4d4d" />
            </g>
            <g
               id="g11971">
              <path
                 id="path11973"
                 d="m 396.06,350.59 c -16.763,0 -30.514,12.834 -31.969,29.219 19.722,8.4056 38.223,16.654 56.906,23.094 4.478,-5.5192 7.1562,-12.558 7.1562,-20.219 0,-17.732 -14.361,-32.094 -32.094,-32.094 z"
                 inkscape:connector-curvature="0" />
              <path
                 id="path11975"
                 d="m 396.06,351.75 c -16.284,0 -29.628,12.59 -30.844,28.562 18.894,8.0655 36.691,15.932 54.625,22.188 4.48,-5.36 7.16,-12.28 7.16,-19.81 0,-17.09 -13.85,-30.94 -30.94,-30.94 z"
                 inkscape:connector-curvature="0"
                 style="fill:#ffffff" />
              <path
                 id="path11977"
                 d="m 396.06,355.69 c -14.661,0 -26.566,11.687 -26.969,26.25 16.052,6.8807 31.376,13.564 46.719,19.125 4.4844,-4.8213 7.25,-11.271 7.25,-18.375 0,-14.915 -12.085,-27 -27,-27 z"
                 inkscape:connector-curvature="0"
                 style="fill:#4d4d4d" />
            </g>
            <g
               id="g11979">
              <path
                 id="path11981"
                 d="m 361.75,195.03 c 0.90607,16.921 14.915,30.375 32.062,30.375 7.308,0 14.041,-2.4506 19.438,-6.5625 -17.339,-6.7089 -34.42,-15.128 -51.5,-23.812 z"
                 inkscape:connector-curvature="0" />
              <path
                 id="path11983"
                 d="m 362.97,195.62 c 1.1853,16.002 14.538,28.625 30.844,28.625 6.7785,0 13.028,-2.2089 18.125,-5.9062 -16.48,-6.46 -32.72,-14.47 -48.97,-22.72 z"
                 inkscape:connector-curvature="0"
                 style="fill:#ffffff" />
              <path
                 id="path11985"
                 d="m 367.19,197.75 c 2.1243,12.795 13.228,22.562 26.625,22.562 5.0119,0 9.6962,-1.3711 13.719,-3.75 -13.557,-5.5455 -26.946,-12.056 -40.344,-18.812 z"
                 inkscape:connector-curvature="0"
                 style="fill:#4d4d4d" />
            </g>
          </g>
          <g
             id="g11987">
            <g
               id="g11989"
               transform="matrix(0.46848,0,0,0.46848,277.36,94.24)">
              <path
                 id="path11991"
                 transform="matrix(1.1994,0,0,1.1994,-36.458,-82.218)"
                 d="m 240,412.36 a 57.145,57.145 0 1 1 -114.29,0 57.145,57.145 0 1 1 114.29,0 z"
                 inkscape:connector-curvature="0" />
              <path
                 id="path11993"
                 transform="matrix(1.1556,0,0,1.1556,-28.45,-64.157)"
                 d="m 240,412.36 a 57.145,57.145 0 1 1 -114.29,0 57.145,57.145 0 1 1 114.29,0 z"
                 inkscape:connector-curvature="0"
                 style="fill:#ffffff" />
              <path
                 id="path11995"
                 transform="matrix(1.0088,0,0,1.0088,-1.6112,-3.6335)"
                 d="m 240,412.36 a 57.145,57.145 0 1 1 -114.29,0 57.145,57.145 0 1 1 114.29,0 z"
                 inkscape:connector-curvature="0"
                 style="fill:#4d4d4d" />
            </g>
            <g
               id="g11997">
              <path
                 id="path11999"
                 d="m 363.03,318.44 c -17.732,0 -32.125,14.392 -32.125,32.125 0,6.625 2.0303,12.762 5.4688,17.875 11.446,4.4393 22.33,9.0595 32.906,13.594 14.738,-2.9108 25.844,-15.877 25.844,-31.469 0,-17.732 -14.361,-32.125 -32.094,-32.125 z"
                 inkscape:connector-curvature="0" />
              <path
                 id="path12001"
                 d="m 363.03,319.62 c -17.085,0 -30.938,13.853 -30.938,30.938 0,7.0135 2.3477,13.467 6.2812,18.656 10.002,3.9187 19.607,7.9759 28.938,11.969 15.059,-2.0841 26.656,-14.992 26.656,-30.625 0,-17.085 -13.853,-30.938 -30.938,-30.938 z"
                 inkscape:connector-curvature="0"
                 style="fill:#ffffff" />
              <path
                 id="path12003"
                 d="m 363.03,323.56 c -14.915,0 -27,12.085 -27,27 0,9.5472 4.9597,17.916 12.438,22.719 2.9778,1.2184 5.9289,2.4308 8.8438,3.6562 1.8453,0.39831 3.7543,0.625 5.7188,0.625 14.915,0 27,-12.085 27,-27 0,-14.915 -12.085,-27 -27,-27 z"
                 inkscape:connector-curvature="0"
                 style="fill:#4d4d4d" />
            </g>
            <g
               id="g12005">
              <path
                 id="path12007"
                 d="m 356.72,192.44 c -15.81,2.0008 -28.031,15.491 -28.031,31.844 0,17.732 14.361,32.125 32.094,32.125 17.732,0 32.125,-14.392 32.125,-32.125 0,-5.8606 -1.5699,-11.333 -4.3125,-16.062 -10.66,-4.9845 -21.258,-10.363 -31.875,-15.781 z"
                 inkscape:connector-curvature="0" />
              <path
                 id="path12009"
                 d="m 358.66,193.44 c -16.092,1.0935 -28.812,14.474 -28.812,30.844 0,17.085 13.853,30.938 30.938,30.938 17.085,0 30.938,-13.853 30.938,-30.938 0,-6.2703 -1.8562,-12.095 -5.0625,-16.969 -9.3607,-4.4201 -18.673,-9.1196 -28,-13.875 z"
                 inkscape:connector-curvature="0"
                 style="fill:#ffffff" />
              <path
                 id="path12011"
                 d="m 360.78,197.28 c -14.915,0 -27,12.085 -27,27 0,14.915 12.085,27 27,27 14.915,0 27,-12.085 27,-27 0,-8.9117 -4.3123,-16.8 -10.969,-21.719 -2.8057,-1.3798 -5.6036,-2.7775 -8.4062,-4.1875 -2.4182,-0.71045 -4.9768,-1.0938 -7.625,-1.0938 z"
                 inkscape:connector-curvature="0"
                 style="fill:#4d4d4d" />
            </g>
          </g>
          <g
             id="g12013">
            <g
               id="g12015"
               transform="matrix(0.46848,0,0,0.46848,244.34,63.25)">
              <path
                 id="path12017"
                 transform="matrix(1.1994,0,0,1.1994,-36.458,-82.218)"
                 d="m 240,412.36 a 57.145,57.145 0 1 1 -114.29,0 57.145,57.145 0 1 1 114.29,0 z"
                 inkscape:connector-curvature="0" />
              <path
                 id="path12019"
                 transform="matrix(1.1556,0,0,1.1556,-28.45,-64.157)"
                 d="m 240,412.36 a 57.145,57.145 0 1 1 -114.29,0 57.145,57.145 0 1 1 114.29,0 z"
                 inkscape:connector-curvature="0"
                 style="fill:#ffffff" />
              <path
                 id="path12021"
                 transform="matrix(1.0088,0,0,1.0088,-1.6112,-3.6335)"
                 d="m 240,412.36 a 57.145,57.145 0 1 1 -114.29,0 57.145,57.145 0 1 1 114.29,0 z"
                 inkscape:connector-curvature="0"
                 style="fill:#4d4d4d" />
            </g>
            <g
               id="g12023"
               transform="matrix(0.46848,0,0,0.46848,244.34,126.38)">
              <path
                 id="path12025"
                 transform="matrix(1.1994,0,0,1.1994,-36.458,-82.218)"
                 d="m 240,412.36 a 57.145,57.145 0 1 1 -114.29,0 57.145,57.145 0 1 1 114.29,0 z"
                 inkscape:connector-curvature="0" />
              <path
                 id="path12027"
                 transform="matrix(1.1556,0,0,1.1556,-28.45,-64.157)"
                 d="m 240,412.36 a 57.145,57.145 0 1 1 -114.29,0 57.145,57.145 0 1 1 114.29,0 z"
                 inkscape:connector-curvature="0"
                 style="fill:#ffffff" />
              <path
                 id="path12029"
                 transform="matrix(1.0088,0,0,1.0088,-1.6112,-3.6335)"
                 d="m 240,412.36 a 57.145,57.145 0 1 1 -114.29,0 57.145,57.145 0 1 1 114.29,0 z"
                 inkscape:connector-curvature="0"
                 style="fill:#4d4d4d" />
            </g>
            <g
               id="g12031">
              <path
                 id="path12033"
                 d="m 330,350.59 c -8.1402,0 -15.559,3.0386 -21.219,8.0312 19.128,6.1604 36.56,13.23 53.094,20.25 -1.89,-15.93 -15.44,-28.28 -31.88,-28.28 z"
                 inkscape:connector-curvature="0" />
              <path
                 id="path12035"
                 d="m 330,351.75 c -7.5941,0 -14.554,2.7407 -19.938,7.2812 18.144,5.9056 34.773,12.624 50.562,19.312 -2.11,-15.02 -15.01,-26.59 -30.62,-26.59 z"
                 inkscape:connector-curvature="0"
                 style="fill:#ffffff" />
              <path
                 id="path12037"
                 d="m 330,355.69 c -5.7454,0 -11.06,1.8164 -15.438,4.875 14.762,4.9794 28.564,10.421 41.719,15.938 -2.8,-11.93 -13.5,-20.81 -26.28,-20.81 z"
                 inkscape:connector-curvature="0"
                 style="fill:#4d4d4d" />
            </g>
            <g
               id="g12039">
              <path
                 id="path12041"
                 d="m 307.41,168.47 c -7.1744,5.8884 -11.75,14.838 -11.75,24.844 0,17.732 14.361,32.094 32.094,32.094 17.477,0 31.687,-13.965 32.094,-31.344 -17.383,-8.855 -34.771,-17.901 -52.438,-25.594 z"
                 inkscape:connector-curvature="0" />
              <path
                 id="path12043"
                 d="m 308.62,169 c -7.1819,5.6649 -11.812,14.455 -11.812,24.312 0,17.085 13.853,30.938 30.938,30.938 17.033,0 30.853,-13.768 30.938,-30.781 -16.59,-8.46 -33.2,-17.07 -50.06,-24.47 z"
                 inkscape:connector-curvature="0"
                 style="fill:#ffffff" />
              <path
                 id="path12045"
                 d="m 312.75,170.84 c -7.2364,4.8448 -12,13.106 -12,22.469 0,14.915 12.085,27 27,27 14.915,0 27,-12.085 27,-27 0,-0.63552 -0.0193,-1.2817 -0.0625,-1.9062 -13.912,-7.1042 -27.845,-14.2 -41.938,-20.562 z"
                 inkscape:connector-curvature="0"
                 style="fill:#4d4d4d" />
            </g>
          </g>
          <g
             id="g12047">
            <g
               id="g12049"
               transform="matrix(0.46848,0,0,0.46848,211.31,30.597)">
              <path
                 id="path12051"
                 transform="matrix(1.1994,0,0,1.1994,-36.458,-82.218)"
                 d="m 240,412.36 a 57.145,57.145 0 1 1 -114.29,0 57.145,57.145 0 1 1 114.29,0 z"
                 inkscape:connector-curvature="0" />
              <path
                 id="path12053"
                 transform="matrix(1.1556,0,0,1.1556,-28.45,-64.157)"
                 d="m 240,412.36 a 57.145,57.145 0 1 1 -114.29,0 57.145,57.145 0 1 1 114.29,0 z"
                 inkscape:connector-curvature="0"
                 style="fill:#ffffff" />
              <path
                 id="path12055"
                 transform="matrix(1.0088,0,0,1.0088,-1.6112,-3.6335)"
                 d="m 240,412.36 a 57.145,57.145 0 1 1 -114.29,0 57.145,57.145 0 1 1 114.29,0 z"
                 inkscape:connector-curvature="0"
                 style="fill:#4d4d4d" />
            </g>
            <g
               id="g12057"
               transform="matrix(0.46848,0,0,0.46848,211.31,93.729)">
              <path
                 id="path12059"
                 transform="matrix(1.1994,0,0,1.1994,-36.458,-82.218)"
                 d="m 240,412.36 a 57.145,57.145 0 1 1 -114.29,0 57.145,57.145 0 1 1 114.29,0 z"
                 inkscape:connector-curvature="0" />
              <path
                 id="path12061"
                 transform="matrix(1.1556,0,0,1.1556,-28.45,-64.157)"
                 d="m 240,412.36 a 57.145,57.145 0 1 1 -114.29,0 57.145,57.145 0 1 1 114.29,0 z"
                 inkscape:connector-curvature="0"
                 style="fill:#ffffff" />
              <path
                 id="path12063"
                 transform="matrix(1.0088,0,0,1.0088,-1.6112,-3.6335)"
                 d="m 240,412.36 a 57.145,57.145 0 1 1 -114.29,0 57.145,57.145 0 1 1 114.29,0 z"
                 inkscape:connector-curvature="0"
                 style="fill:#4d4d4d" />
            </g>
            <g
               id="g12065">
              <path
                 id="path12067"
                 d="m 296.97,317.94 c -16.773,0 -30.528,12.851 -31.969,29.25 22.297,4.4225 42.249,10.496 60.688,17.219 2.1658,-4.3222 3.4062,-9.2114 3.4062,-14.375 0,-17.732 -14.392,-32.094 -32.125,-32.094 z"
                 inkscape:connector-curvature="0" />
              <path
                 id="path12069"
                 d="m 296.97,319.09 c -16.199,0 -29.477,12.459 -30.812,28.312 21.401,4.3149 40.619,10.174 58.438,16.625 2.1315,-4.1994 3.3125,-8.9683 3.3125,-14 0,-17.085 -13.853,-30.938 -30.938,-30.938 z"
                 inkscape:connector-curvature="0"
                 style="fill:#ffffff" />
              <path
                 id="path12071"
                 d="m 296.97,323.03 c -14.301,0 -25.998,11.125 -26.938,25.188 18.373,3.9081 35.12,8.9404 50.781,14.469 2.0084,-3.7766 3.1562,-8.0805 3.1562,-12.656 0,-14.915 -12.085,-27 -27,-27 z"
                 inkscape:connector-curvature="0"
                 style="fill:#4d4d4d" />
            </g>
            <g
               id="g12073">
              <path
                 id="path12075"
                 d="m 263.5,153.19 c -0.57084,2.3964 -0.875,4.8976 -0.875,7.4688 0,17.732 14.361,32.094 32.094,32.094 12.306,0 23.017,-6.9299 28.406,-17.094 -19.51,-9.3124 -39.26,-17.531 -59.625,-22.469 z"
                 inkscape:connector-curvature="0" />
              <path
                 id="path12077"
                 d="m 264.66,153.5 c -0.54219,2.2934 -0.84375,4.6972 -0.84375,7.1562 0,17.085 13.821,30.938 30.906,30.938 11.845,0 22.146,-6.6608 27.344,-16.438 -18.8,-8.93 -37.83,-16.79 -57.41,-21.66 z"
                 inkscape:connector-curvature="0"
                 style="fill:#ffffff" />
              <path
                 id="path12079"
                 d="m 268.44,154.47 c -0.46635,1.9882 -0.71875,4.0571 -0.71875,6.1875 0,14.915 12.085,27 27,27 10.279,0 19.218,-5.736 23.781,-14.188 -16.422,-7.6636 -33.038,-14.42 -50.062,-19 z"
                 inkscape:connector-curvature="0"
                 style="fill:#4d4d4d" />
            </g>
          </g>
          <g
             id="g12081">
            <g
               id="g12083">
              <path
                 id="path12085"
                 d="m 262.84,286.94 c -17.732,0 -32.125,14.361 -32.125,32.094 0,9.7337 4.347,18.456 11.188,24.344 11.282,1.5089 21.975,3.4625 32.156,5.75 12.195,-4.5526 20.875,-16.311 20.875,-30.094 0,-17.732 -14.361,-32.094 -32.094,-32.094 z"
                 inkscape:connector-curvature="0" />
              <path
                 id="path12087"
                 d="m 262.84,288.09 c -17.085,0 -30.938,13.853 -30.938,30.938 0,10.041 4.7748,18.974 12.188,24.625 9.6886,1.3538 18.947,3.0323 27.812,4.9688 12.656,-3.8783 21.844,-15.667 21.844,-29.594 0,-17.085 -13.821,-30.938 -30.906,-30.938 z"
                 inkscape:connector-curvature="0"
                 style="fill:#ffffff" />
              <path
                 id="path12089"
                 d="m 262.84,292.03 c -14.915,0 -27.031,12.085 -27.031,27 0,14.915 12.116,27.031 27.031,27.031 14.915,0 27,-12.116 27,-27.031 0,-14.915 -12.085,-27 -27,-27 z"
                 inkscape:connector-curvature="0"
                 style="fill:#4d4d4d" />
            </g>
            <g
               id="g12091"
               transform="matrix(0.46848,0,0,0.46848,144.14,93.298)">
              <path
                 id="path12093"
                 transform="matrix(1.1994,0,0,1.1994,-36.458,-82.218)"
                 d="m 240,412.36 a 57.145,57.145 0 1 1 -114.29,0 57.145,57.145 0 1 1 114.29,0 z"
                 inkscape:connector-curvature="0" />
              <path
                 id="path12095"
                 transform="matrix(1.1556,0,0,1.1556,-28.45,-64.157)"
                 d="m 240,412.36 a 57.145,57.145 0 1 1 -114.29,0 57.145,57.145 0 1 1 114.29,0 z"
                 inkscape:connector-curvature="0"
                 style="fill:#ffffff" />
              <path
                 id="path12097"
                 transform="matrix(1.0088,0,0,1.0088,-1.6112,-3.6335)"
                 d="m 240,412.36 a 57.145,57.145 0 1 1 -114.29,0 57.145,57.145 0 1 1 114.29,0 z"
                 inkscape:connector-curvature="0"
                 style="fill:#4d4d4d" />
            </g>
          </g>
        </g>
        <g
           id="g12101"
           transform="translate(-74.286,-754.28)">
          <path
             id="path12103"
             d="m 255.12,-171.31 c -30.392,0.21031 -60.472,7.1653 -88.406,18.875 24.796,30.713 29.429,72.126 25.938,110.38 20.934,18.616 50.7,19.499 77.281,20.188 22.176,1.0098 47.739,0.91828 64.375,17.844 4.4313,4.7446 7.6394,10.507 10.125,16.531 15.417,3.2827 28.568,-10.181 32.75,-23.844 3.4426,-8.8693 5.5411,-18.203 7.4062,-27.531 16.177,1.8486 36.172,0.4047 45.969,-14.375 8.4648,-15.221 0.28187,-33.449 -9.7301,-45.734 -27.161,-35.14 -69.204,-55.781 -111.68,-66.391 -17.685,-4.1455 -35.838,-6.2048 -54.031,-5.9375 z"
             inkscape:connector-curvature="0" />
          <path
             id="path12105"
             d="m 255.16,-169.31 c -29.26,0.21662 -58.223,6.6711 -85.25,17.75 23.63,30.706 28.077,71.039 24.812,108.62 20.552,17.759 49.467,18.269 75.276,19.065 22.371,0.97102 48.03,1.1288 64.943,17.591 4.6936,4.7593 8.2934,10.742 10.906,16.969 14.262,2.3823 25.433,-10.328 29.469,-22.688 3.6081,-9.3574 5.739,-19.209 7.6562,-29.062 15.7,1.8215 35.244,1.4939 45.438,-12.5 8.2602,-13.506 1.338,-30.404 -7.4062,-41.844 -24.58,-33.637 -63.362,-53.847 -102.59,-65.562 -20.556,-5.7181 -41.87,-8.6367 -63.25,-8.3438 z"
             inkscape:connector-curvature="0"
             style="fill:#ffffff" />
          <path
             id="path12107"
             d="m 179.19,-148.72 c 176.46,-67.16 327.52,119.94 198.91,101.03 -3.69,19.44 -9.25,52.41 -28.35,52.533 -26.78,-56.69 -107.95,-17.88 -148.84,-50.512 3.5609,-48.795 -6.7521,-80.785 -21.717,-103.05 z"
             inkscape:connector-curvature="0"
             style="fill:#4d4d4d" />
        </g>
        <g
           id="g12109"
           transform="translate(0,-1074.3)">
          <path
             id="path12111"
             transform="matrix(1.5644,0,0,1.5644,-172.63,376.65)"
             d="m 262.86,-102.28 a 36.0715,36.0715 0 1 1 -72.143,0 36.0715,36.0715 0 1 1 72.143,0 z"
             inkscape:connector-curvature="0"
             style="fill:#ffffff" />
          <path
             id="path12113"
             transform="matrix(1.1287,0,0,1.1287,-89.547,337.81)"
             d="m 262.86,-102.28 a 36.0715,36.0715 0 1 1 -72.143,0 36.0715,36.0715 0 1 1 72.143,0 z"
             inkscape:connector-curvature="0"
             style="fill:#ffdd55" />
          <path
             id="path12115"
             transform="matrix(0.85149,0,0,0.85149,-36.676,309.45)"
             d="m 262.86,-102.28 a 36.0715,36.0715 0 1 1 -72.143,0 36.0715,36.0715 0 1 1 72.143,0 z"
             inkscape:connector-curvature="0"
             style="fill:#1a1a1a" />
        </g>
        <g
           id="g12117"
           transform="matrix(0.76257,-0.13002,0.13002,0.76257,-24.213,-726.15)">
          <path
             id="path12119"
             d="m 207.91,-19.75 c -14.519,2.8036 -22.821,25.424 -7.5625,32.969 15.099,8.9343 34.035,3.8699 49.031,-2.5625 4.9292,-2.835 12.039,-5.6024 13.281,-11.625 -1.0843,-6.2634 -9.1299,-3.8584 -13.333,-3 -10.383,1.7212 -23.554,4.2728 -31.698,-4.0625 -1.3748,-5.315 -2.3837,-12.59 -9.7188,-11.719 z"
             inkscape:connector-curvature="0" />
          <path
             id="path12121"
             d="m 208.16,-17.75 c -9.8308,2.5996 -18.126,15.317 -12.062,24.719 10.194,11.76 28.116,10.045 41.594,5.9375 8.23,-2.605 17,-5.9695 22.81,-12.531 1.21,-4.555 -5.14,-3.7044 -7.73,-2.8947 -11.82,1.9455 -26.91,5.4479 -36.52,-3.8865 -2.3292,-3.6591 -1.021,-11.064 -7.0938,-11.375 -0.33298,0.01275 -0.67,-0.02859 -1,0.03125 z"
             inkscape:connector-curvature="0"
             style="fill:#ffffff" />
          <path
             id="path12123"
             d="m 210.4,-12.263 c 1.6068,24.477 43.885,13.456 43.885,13.456 0,0 -30.489,18.896 -51.408,6.7279 -14.443,-8.4012 7.0644,-27.172 7.5232,-20.184 z"
             inkscape:connector-curvature="0"
             style="fill:#4d4d4d" />
        </g>
      </g>
    </g>
  </g>
  <metadata
     id="metadata4889">
    <rdf:RDF>
      <cc:Work>
        <dc:format>image/svg+xml</dc:format>
        <dc:type
           rdf:resource="http://purl.org/dc/dcmitype/StillImage" />
        <cc:license
           rdf:resource="http://creativecommons.org/publicdomain/zero/1.0/" />
        <dc:title>Carp icon</dc:title>
        <dc:creator>
          <cc:Agent>
            <dc:title>Étienne Deparis</dc:title>
          </cc:Agent>
        </dc:creator>
        <dc:contributor>
          <cc:Agent>
            <dc:title>bersace (Bouclier)
uroesch (Koinobori Grey)</dc:title>
          </cc:Agent>
        </dc:contributor>
      </cc:Work>
    </rdf:RDF>
  </metadata>
  <circle
     r="86.180344"
     cy="475.13763"
     cx="426.46115"
     id="path2762"
     style="fill:#4a90d9;fill-rule:evenodd;stroke-width:0.27520707;fill-opacity:1" />
  <use
     id="use4539"
     xlink:href="#path2760"
     transform="matrix(-1,0,0,1,852.92076,4.575626e-6)"
     height="1052.3622"
     width="744.09448"
     y="0"
     x="0" />
  <path
     inkscape:connector-curvature="0"
     id="path2760"
     sodipodi:nodetypes="cscccccccsccssscccsc"
     style="fill:#d7d7d7;fill-rule:evenodd;stroke-width:0.27520707"
     d="m 426.46175,561.3186 c -5.94723,0 -18.75812,-1.67326 -24.46591,-3.50338 -2.72455,-0.87516 6.4426,-46.52926 17.58298,-67.55783 1.75032,0.91093 4.59321,1.34851 6.90219,1.34851 l -0.011,-33.91377 c -2.27871,0.0193 -3.78134,0.24218 -4.95923,0.72655 -5.63624,-11.74584 -7.14437,-47.19801 -8.68828,-68.01743 5.04179,-1.28879 7.69203,-1.44373 13.63926,-1.44373 l 0.0138,-16.6803 C 369.69479,372.27735 323.60035,418.36064 323.60035,475.13861 323.6006,531.91658 369.68103,578 426.46175,578 m -11.289,-90.21012 c -3.18139,11.34403 -32.30105,61.90232 -36.886,58.80349 -4.58495,-3.09608 -8.85616,-6.62423 -12.75585,-10.52392 -15.59874,-15.59873 -25.25025,-37.14469 -25.25025,-60.93084 0,-23.78615 9.65151,-45.32936 25.25025,-60.92809 8.18191,-7.84065 19.60025,-15.39784 31.67083,-20.14791 6.01603,19.50667 17.52794,41.14896 19.34431,66.35242 -4.00151,2.54291 -6.86092,9.51116 -6.86092,14.12913 0,4.61798 1.87417,10.60373 5.48763,13.24572 z" />
  <path
     inkscape:connector-curvature="0"
     id="path1953"
     sodipodi:nodetypes="ccccscccccccccccccccccccccscccccccc"
     style="opacity:0.25;fill:#000000;fill-rule:evenodd;stroke-width:0.27520707"
     d="m 396.51371,394.43083 -1.10082,-3.02728 c -68.04771,24.54793 -77.96892,116.6878 -16.78763,155.21679 11.99627,-17.50592 33.88624,-49.39967 34.24401,-56.86053 -27.7106,32.51847 -59.42546,38.14095 -65.62863,13.47139 -11.69933,-46.52101 10.65051,-85.75728 49.27307,-108.80037 z m 43.75793,-3.8529 c -9.81389,-1.00753 -17.14815,0.15935 -25.41262,1.2178 1.59895,22.1605 1.47786,44.32209 6.39031,66.48177 -4.60697,-8.79837 -7.85441,-35.01185 -9.95424,-70.45301 11.52292,-0.86305 23.02657,-1.70408 28.97655,2.75262 z m -3.69053,69.85582 c 8.39932,-40.0619 13.82916,-45.8495 20.12314,-64.60762 8.53693,2.3888 16.24823,4.22443 41.47646,31.39563 -16.72709,-28.95454 -31.3048,-31.21399 -42.88277,-36.99884 -11.0991,19.56447 -22.16517,71.03094 -18.71683,70.21083 z m -1.11734,7.83239 c 0,0 -5.69403,4.02077 -8.78736,4.77484 -0.0771,3.37954 -2.41632,6.01603 -5.24545,9.86617 9.69555,6.48113 19.54796,-4.50513 14.03281,-14.64101 z m 84.35097,-35.85673 c 52.27559,121.48741 -115.90071,203.41655 -182.09351,93.81259 65.05895,93.96945 223.33605,38.83997 182.09351,-93.81259 z m -83.07401,55.20379 c 2.96949,8.4461 21.99455,50.46196 37.61255,59.39519 -6.15913,1.10082 56.78898,-30.8342 31.34609,-104.81262 -4.08408,53.18102 -66.12125,42.31859 -66.6524,45.89629 -0.45685,3.08782 5.91145,-8.88369 3.32175,-19.01956 0.36327,10.46062 -1.90168,16.25097 -5.62799,18.5407 z m -3.36578,2.5264 c -4.84089,0.4018 -9.68454,0.81736 -14.01905,-1.31274 -11.60823,21.39735 -17.34355,44.37989 -17.61325,68.25135 14.28049,3.00802 34.23851,5.56744 48.0429,-0.80635 1.21641,-5.22619 -4.22994,-28.2335 -8.35804,-43.36163 -26.98681,15.54645 -23.37059,-10.99177 -8.05256,-22.77063 z" />
  <path
     inkscape:connector-curvature="0"
     id="path2865"
     sodipodi:nodetypes="ccccccccccccccccccccccccccc"
     style="opacity:0.75;fill:#ffffff;fill-rule:evenodd;stroke-width:0.27520707"
     d="M 506.02411,409.4731 C 416.46072,321.70406 288.55273,414.22042 335.55535,523.8987 280.80565,413.659 421.07319,315.77885 506.02411,409.4731 Z m -65.38369,-19.45934 c -2.66401,22.70403 0.84213,46.35588 -8.73508,69.06046 -3.32725,-0.95497 -6.92696,-0.83112 -10.5074,-0.77883 1.59895,-0.35227 4.10609,-1.20541 9.94873,-0.0495 8.49565,-20.30203 5.92796,-46.52926 9.29375,-68.23209 z m -27.2455,50.59682 5.64449,20.43413 c -7.12236,7.648 -12.78061,17.05458 -2.14111,26.6593 -9.60472,22.5202 -21.45239,43.84875 -37.7529,59.15852 14.13738,-18.29302 29.67007,-36.10167 36.19523,-58.96312 -6.02428,-6.22793 -8.98001,-16.26198 1.16688,-27.63354 0.25594,-9.45336 -2.43558,-12.99253 -3.11259,-19.65529 z m -7.78286,117.92898 c 10.28449,3.22543 20.02957,6.75358 47.48148,0.38804 -1.40906,-24.63378 -8.06908,-47.10444 -18.29302,-68.11099 7.9755,21.5377 16.52894,44.82297 16.3473,66.36068 -16.12713,4.93446 -28.39586,5.73531 -45.53576,1.36227 z m 67.52481,-11.67703 c 52.0389,-24.39986 41.2673,-94.64096 31.13692,-109.36454 19.41586,37.48871 3.0493,91.69899 -31.13692,109.36454 z m -46.70264,-74.14354 c -4.0483,3.75107 -6.90495,7.59847 -10.22395,3.80886 -3.26946,-8.33051 4.5079,-15.24922 11.97426,-12.56595 -2.48236,3.64374 -1.89617,8.99377 -1.75031,8.75709 z" />
  <g
     id="g7317"
     transform="matrix(0.27520707,0,0,0.27520707,326.0607,365.98488)">
    <circle
       r="14"
       cy="151.86218"
       cx="127"
       id="path4656"
       style="opacity:0.75;fill:#b1b1b1;fill-rule:evenodd"
       transform="translate(-3.5,-2)" />
    <path
       inkscape:connector-curvature="0"
       id="path4658"
       sodipodi:nodetypes="ccc"
       style="opacity:0.25;fill:#000000;fill-rule:evenodd"
       d="m 134.69,141.49 c 8.35,2.5 5.9,34.21 -20.31,19.12 9.39,3.97 24.16,-1.67 20.31,-19.12 z" />
    <path
       inkscape:connector-curvature="0"
       id="path4660"
       sodipodi:nodetypes="ccc"
       style="opacity:0.75;fill:#ffffff;fill-rule:evenodd"
       d="m 111,156.36 c 0.24,-2.82 1,-16.82 18.94,-19.12 -21.95,-6.26 -22.29,16.48 -18.94,19.12 z" />
  </g>
  <g
     id="g7338"
     transform="matrix(0.27520707,0,0,0.27520707,349.81107,349.63731)">
    <circle
       r="14"
       cy="151.86218"
       cx="127"
       id="path7340"
       style="opacity:0.75;fill:#b1b1b1;fill-rule:evenodd"
       transform="translate(-3.5,-2)" />
    <path
       inkscape:connector-curvature="0"
       id="path7342"
       sodipodi:nodetypes="ccc"
       style="opacity:0.25;fill:#000000;fill-rule:evenodd"
       d="m 134.69,141.49 c 8.35,2.5 5.9,34.21 -20.31,19.12 9.39,3.97 24.16,-1.67 20.31,-19.12 z" />
    <path
       inkscape:connector-curvature="0"
       id="path7344"
       sodipodi:nodetypes="ccc"
       style="opacity:0.75;fill:#ffffff;fill-rule:evenodd"
       d="m 111,156.36 c 0.24,-2.82 1,-16.82 18.94,-19.12 -21.95,-6.26 -22.29,16.48 -18.94,19.12 z" />
  </g>
  <g
     id="g7362"
     transform="matrix(0.27520707,0,0,0.27520707,378.29501,340.69335)">
    <circle
       r="14"
       cy="151.86218"
       cx="127"
       id="path7364"
       style="opacity:0.75;fill:#b1b1b1;fill-rule:evenodd"
       transform="translate(-3.5,-2)" />
    <path
       inkscape:connector-curvature="0"
       id="path7366"
       sodipodi:nodetypes="ccc"
       style="opacity:0.25;fill:#000000;fill-rule:evenodd"
       d="m 134.69,141.49 c 8.35,2.5 5.9,34.21 -20.31,19.12 9.39,3.97 24.16,-1.67 20.31,-19.12 z" />
    <path
       inkscape:connector-curvature="0"
       id="path7368"
       sodipodi:nodetypes="ccc"
       style="opacity:0.75;fill:#ffffff;fill-rule:evenodd"
       d="m 111,156.36 c 0.24,-2.82 1,-16.82 18.94,-19.12 -21.95,-6.26 -22.29,16.48 -18.94,19.12 z" />
  </g>
  <g
     id="g7378"
     transform="matrix(0.27520707,0,0,0.27520707,407.87977,341.38137)">
    <circle
       r="14"
       cy="151.86218"
       cx="127"
       id="path7380"
       style="opacity:0.75;fill:#b1b1b1;fill-rule:evenodd"
       transform="translate(-3.5,-2)" />
    <path
       inkscape:connector-curvature="0"
       id="path7382"
       sodipodi:nodetypes="ccc"
       style="opacity:0.25;fill:#000000;fill-rule:evenodd"
       d="m 134.69,141.49 c 8.35,2.5 5.9,34.21 -20.31,19.12 9.39,3.97 24.16,-1.67 20.31,-19.12 z" />
    <path
       inkscape:connector-curvature="0"
       id="path7384"
       sodipodi:nodetypes="ccc"
       style="opacity:0.75;fill:#ffffff;fill-rule:evenodd"
       d="m 111,156.36 c 0.24,-2.82 1,-16.82 18.94,-19.12 -21.95,-6.26 -22.29,16.48 -18.94,19.12 z" />
  </g>
  <g
     id="g7394"
     transform="matrix(0.27520707,0,0,0.27520707,434.71246,349.77491)">
    <circle
       r="14"
       cy="151.86218"
       cx="127"
       id="path7396"
       style="opacity:0.75;fill:#b1b1b1;fill-rule:evenodd"
       transform="translate(-3.5,-2)" />
    <path
       inkscape:connector-curvature="0"
       id="path7398"
       sodipodi:nodetypes="ccc"
       style="opacity:0.25;fill:#000000;fill-rule:evenodd"
       d="m 134.69,141.49 c 8.35,2.5 5.9,34.21 -20.31,19.12 9.39,3.97 24.16,-1.67 20.31,-19.12 z" />
    <path
       inkscape:connector-curvature="0"
       id="path7400"
       sodipodi:nodetypes="ccc"
       style="opacity:0.75;fill:#ffffff;fill-rule:evenodd"
       d="m 111,156.36 c 0.24,-2.82 1,-16.82 18.94,-19.12 -21.95,-6.26 -22.29,16.48 -18.94,19.12 z" />
  </g>
  <g
     id="g7418"
     transform="matrix(0.27520707,0,0,0.27520707,473.24145,385.27662)">
    <circle
       r="14"
       cy="151.86218"
       cx="127"
       id="path7420"
       style="opacity:0.75;fill:#b1b1b1;fill-rule:evenodd"
       transform="translate(-3.5,-2)" />
    <path
       inkscape:connector-curvature="0"
       id="path7422"
       sodipodi:nodetypes="ccc"
       style="opacity:0.25;fill:#000000;fill-rule:evenodd"
       d="m 134.69,141.49 c 8.35,2.5 5.9,34.21 -20.31,19.12 9.39,3.97 24.16,-1.67 20.31,-19.12 z" />
    <path
       inkscape:connector-curvature="0"
       id="path7424"
       sodipodi:nodetypes="ccc"
       style="opacity:0.75;fill:#ffffff;fill-rule:evenodd"
       d="m 111,156.36 c 0.24,-2.82 1,-16.82 18.94,-19.12 -21.95,-6.26 -22.29,16.48 -18.94,19.12 z" />
  </g>
  <g
     id="g7434"
     transform="matrix(0.27520707,0,0,0.27520707,483.69931,414.17364)">
    <circle
       r="14"
       cy="151.86218"
       cx="127"
       id="path7436"
       style="opacity:0.75;fill:#b1b1b1;fill-rule:evenodd"
       transform="translate(-3.5,-2)" />
    <path
       inkscape:connector-curvature="0"
       id="path7438"
       sodipodi:nodetypes="ccc"
       style="opacity:0.25;fill:#000000;fill-rule:evenodd"
       d="m 134.69,141.49 c 8.35,2.5 5.9,34.21 -20.31,19.12 9.39,3.97 24.16,-1.67 20.31,-19.12 z" />
    <path
       inkscape:connector-curvature="0"
       id="path7440"
       sodipodi:nodetypes="ccc"
       style="opacity:0.75;fill:#ffffff;fill-rule:evenodd"
       d="m 111,156.36 c 0.24,-2.82 1,-16.82 18.94,-19.12 -21.95,-6.26 -22.29,16.48 -18.94,19.12 z" />
  </g>
  <g
     id="g7450"
     transform="matrix(0.27520707,0,0,0.27520707,484.52494,441.41914)">
    <circle
       r="14"
       cy="151.86218"
       cx="127"
       id="path7452"
       style="opacity:0.75;fill:#b1b1b1;fill-rule:evenodd"
       transform="translate(-3.5,-2)" />
    <path
       inkscape:connector-curvature="0"
       id="path7454"
       sodipodi:nodetypes="ccc"
       style="opacity:0.25;fill:#000000;fill-rule:evenodd"
       d="m 134.69,141.49 c 8.35,2.5 5.9,34.21 -20.31,19.12 9.39,3.97 24.16,-1.67 20.31,-19.12 z" />
    <path
       inkscape:connector-curvature="0"
       id="path7456"
       sodipodi:nodetypes="ccc"
       style="opacity:0.75;fill:#ffffff;fill-rule:evenodd"
       d="m 111,156.36 c 0.24,-2.82 1,-16.82 18.94,-19.12 -21.95,-6.26 -22.29,16.48 -18.94,19.12 z" />
  </g>
  <g
     id="g7466"
     transform="matrix(0.27520707,0,0,0.27520707,478.88319,468.93985)">
    <circle
       r="14"
       cy="151.86218"
       cx="127"
       id="path7468"
       style="opacity:0.75;fill:#b1b1b1;fill-rule:evenodd"
       transform="translate(-3.5,-2)" />
    <path
       inkscape:connector-curvature="0"
       id="path7470"
       sodipodi:nodetypes="ccc"
       style="opacity:0.25;fill:#000000;fill-rule:evenodd"
       d="m 134.69,141.49 c 8.35,2.5 5.9,34.21 -20.31,19.12 9.39,3.97 24.16,-1.67 20.31,-19.12 z" />
    <path
       inkscape:connector-curvature="0"
       id="path7472"
       sodipodi:nodetypes="ccc"
       style="opacity:0.75;fill:#ffffff;fill-rule:evenodd"
       d="m 111,156.36 c 0.24,-2.82 1,-16.82 18.94,-19.12 -21.95,-6.26 -22.29,16.48 -18.94,19.12 z" />
  </g>
  <g
     id="g7482"
     transform="matrix(0.27520707,0,0,0.27520707,465.53565,491.78203)">
    <circle
       r="14"
       cy="151.86218"
       cx="127"
       id="path7484"
       style="opacity:0.75;fill:#b1b1b1;fill-rule:evenodd"
       transform="translate(-3.5,-2)" />
    <path
       inkscape:connector-curvature="0"
       id="path7486"
       sodipodi:nodetypes="ccc"
       style="opacity:0.25;fill:#000000;fill-rule:evenodd"
       d="m 134.69,141.49 c 8.35,2.5 5.9,34.21 -20.31,19.12 9.39,3.97 24.16,-1.67 20.31,-19.12 z" />
    <path
       inkscape:connector-curvature="0"
       id="path7488"
       sodipodi:nodetypes="ccc"
       style="opacity:0.75;fill:#ffffff;fill-rule:evenodd"
       d="m 111,156.36 c 0.24,-2.82 1,-16.82 18.94,-19.12 -21.95,-6.26 -22.29,16.48 -18.94,19.12 z" />
  </g>
  <g
     id="g7498"
     transform="matrix(0.27520707,0,0,0.27520707,445.99595,510.77132)">
    <circle
       r="14"
       cy="151.86218"
       cx="127"
       id="path7500"
       style="opacity:0.75;fill:#b1b1b1;fill-rule:evenodd"
       transform="translate(-3.5,-2)" />
    <path
       inkscape:connector-curvature="0"
       id="path7502"
       sodipodi:nodetypes="ccc"
       style="opacity:0.25;fill:#000000;fill-rule:evenodd"
       d="m 134.69,141.49 c 8.35,2.5 5.9,34.21 -20.31,19.12 9.39,3.97 24.16,-1.67 20.31,-19.12 z" />
    <path
       inkscape:connector-curvature="0"
       id="path7504"
       sodipodi:nodetypes="ccc"
       style="opacity:0.75;fill:#ffffff;fill-rule:evenodd"
       d="m 111,156.36 c 0.24,-2.82 1,-16.82 18.94,-19.12 -21.95,-6.26 -22.29,16.48 -18.94,19.12 z" />
  </g>
  <g
     id="g7514"
     transform="matrix(0.27520707,0,0,0.27520707,417.0992,524.80688)">
    <circle
       r="14"
       cy="151.86218"
       cx="127"
       id="path7516"
       style="opacity:0.75;fill:#b1b1b1;fill-rule:evenodd"
       transform="translate(-3.5,-2)" />
    <path
       inkscape:connector-curvature="0"
       id="path7518"
       sodipodi:nodetypes="ccc"
       style="opacity:0.25;fill:#000000;fill-rule:evenodd"
       d="m 134.69,141.49 c 8.35,2.5 5.9,34.21 -20.31,19.12 9.39,3.97 24.16,-1.67 20.31,-19.12 z" />
    <path
       inkscape:connector-curvature="0"
       id="path7520"
       sodipodi:nodetypes="ccc"
       style="opacity:0.75;fill:#ffffff;fill-rule:evenodd"
       d="m 111,156.36 c 0.24,-2.82 1,-16.82 18.94,-19.12 -21.95,-6.26 -22.29,16.48 -18.94,19.12 z" />
  </g>
  <g
     id="g7530"
     transform="matrix(0.27520707,0,0,0.27520707,385.31279,528.65978)">
    <circle
       r="14"
       cy="151.86218"
       cx="127"
       id="path7532"
       style="opacity:0.75;fill:#b1b1b1;fill-rule:evenodd"
       transform="translate(-3.5,-2)" />
    <path
       inkscape:connector-curvature="0"
       id="path7534"
       sodipodi:nodetypes="ccc"
       style="opacity:0.25;fill:#000000;fill-rule:evenodd"
       d="m 134.69,141.49 c 8.35,2.5 5.9,34.21 -20.31,19.12 9.39,3.97 24.16,-1.67 20.31,-19.12 z" />
    <path
       inkscape:connector-curvature="0"
       id="path7536"
       sodipodi:nodetypes="ccc"
       style="opacity:0.75;fill:#ffffff;fill-rule:evenodd"
       d="m 111,156.36 c 0.24,-2.82 1,-16.82 18.94,-19.12 -21.95,-6.26 -22.29,16.48 -18.94,19.12 z" />
  </g>
  <g
     id="g7546"
     transform="matrix(0.27520707,0,0,0.27520707,355.17761,521.91721)">
    <circle
       r="14"
       cy="151.86218"
       cx="127"
       id="path7548"
       style="opacity:0.75;fill:#b1b1b1;fill-rule:evenodd"
       transform="translate(-3.5,-2)" />
    <path
       inkscape:connector-curvature="0"
       id="path7550"
       sodipodi:nodetypes="ccc"
       style="opacity:0.25;fill:#000000;fill-rule:evenodd"
       d="m 134.69,141.49 c 8.35,2.5 5.9,34.21 -20.31,19.12 9.39,3.97 24.16,-1.67 20.31,-19.12 z" />
    <path
       inkscape:connector-curvature="0"
       id="path7552"
       sodipodi:nodetypes="ccc"
       style="opacity:0.75;fill:#ffffff;fill-rule:evenodd"
       d="m 111,156.36 c 0.24,-2.82 1,-16.82 18.94,-19.12 -21.95,-6.26 -22.29,16.48 -18.94,19.12 z" />
  </g>
  <g
     id="g7570"
     transform="matrix(0.27520707,0,0,0.27520707,315.27148,489.02996)">
    <circle
       r="14"
       cy="151.86218"
       cx="127"
       id="path7572"
       style="opacity:0.75;fill:#b1b1b1;fill-rule:evenodd"
       transform="translate(-3.5,-2)" />
    <path
       inkscape:connector-curvature="0"
       id="path7574"
       sodipodi:nodetypes="ccc"
       style="opacity:0.25;fill:#000000;fill-rule:evenodd"
       d="m 134.69,141.49 c 8.35,2.5 5.9,34.21 -20.31,19.12 9.39,3.97 24.16,-1.67 20.31,-19.12 z" />
    <path
       inkscape:connector-curvature="0"
       id="path7576"
       sodipodi:nodetypes="ccc"
       style="opacity:0.75;fill:#ffffff;fill-rule:evenodd"
       d="m 111,156.36 c 0.24,-2.82 1,-16.82 18.94,-19.12 -21.95,-6.26 -22.29,16.48 -18.94,19.12 z" />
  </g>
  <g
     id="g7586"
     transform="matrix(0.27520707,0,0,0.27520707,302.74956,465.91257)">
    <circle
       r="14"
       cy="151.86218"
       cx="127"
       id="path7588"
       style="opacity:0.75;fill:#b1b1b1;fill-rule:evenodd"
       transform="translate(-3.5,-2)" />
    <path
       inkscape:connector-curvature="0"
       id="path7590"
       sodipodi:nodetypes="ccc"
       style="opacity:0.25;fill:#000000;fill-rule:evenodd"
       d="m 134.69,141.49 c 8.35,2.5 5.9,34.21 -20.31,19.12 9.39,3.97 24.16,-1.67 20.31,-19.12 z" />
    <path
       inkscape:connector-curvature="0"
       id="path7592"
       sodipodi:nodetypes="ccc"
       style="opacity:0.75;fill:#ffffff;fill-rule:evenodd"
       d="m 111,156.36 c 0.24,-2.82 1,-16.82 18.94,-19.12 -21.95,-6.26 -22.29,16.48 -18.94,19.12 z" />
  </g>
  <g
     id="g7602"
     transform="matrix(0.27520707,0,0,0.27520707,297.79584,438.80467)">
    <circle
       r="14"
       cy="151.86218"
       cx="127"
       id="path7604"
       style="opacity:0.75;fill:#b1b1b1;fill-rule:evenodd"
       transform="translate(-3.5,-2)" />
    <path
       inkscape:connector-curvature="0"
       id="path7606"
       sodipodi:nodetypes="ccc"
       style="opacity:0.25;fill:#000000;fill-rule:evenodd"
       d="m 134.69,141.49 c 8.35,2.5 5.9,34.21 -20.31,19.12 9.39,3.97 24.16,-1.67 20.31,-19.12 z" />
    <path
       inkscape:connector-curvature="0"
       id="path7608"
       sodipodi:nodetypes="ccc"
       style="opacity:0.75;fill:#ffffff;fill-rule:evenodd"
       d="m 111,156.36 c 0.24,-2.82 1,-16.82 18.94,-19.12 -21.95,-6.26 -22.29,16.48 -18.94,19.12 z" />
  </g>
  <g
     id="g7618"
     transform="matrix(0.27520707,0,0,0.27520707,300.1351,413.76083)">
    <circle
       r="14"
       cy="151.86218"
       cx="127"
       id="path7620"
       style="opacity:0.75;fill:#b1b1b1;fill-rule:evenodd"
       transform="translate(-3.5,-2)" />
    <path
       inkscape:connector-curvature="0"
       id="path7622"
       sodipodi:nodetypes="ccc"
       style="opacity:0.25;fill:#000000;fill-rule:evenodd"
       d="m 134.69,141.49 c 8.35,2.5 5.9,34.21 -20.31,19.12 9.39,3.97 24.16,-1.67 20.31,-19.12 z" />
    <path
       inkscape:connector-curvature="0"
       id="path7624"
       sodipodi:nodetypes="ccc"
       style="opacity:0.75;fill:#ffffff;fill-rule:evenodd"
       d="m 111,156.36 c 0.24,-2.82 1,-16.82 18.94,-19.12 -21.95,-6.26 -22.29,16.48 -18.94,19.12 z" />
  </g>
  <g
     id="g7642"
     transform="matrix(0.27520707,0,0,0.27520707,308.80412,387.75348)">
    <circle
       r="14"
       cy="151.86218"
       cx="127"
       id="path7644"
       style="opacity:0.75;fill:#b1b1b1;fill-rule:evenodd"
       transform="translate(-3.5,-2)" />
    <path
       inkscape:connector-curvature="0"
       id="path7646"
       sodipodi:nodetypes="ccc"
       style="opacity:0.25;fill:#000000;fill-rule:evenodd"
       d="m 134.69,141.49 c 8.35,2.5 5.9,34.21 -20.31,19.12 9.39,3.97 24.16,-1.67 20.31,-19.12 z" />
    <path
       inkscape:connector-curvature="0"
       id="path7648"
       sodipodi:nodetypes="ccc"
       style="opacity:0.75;fill:#ffffff;fill-rule:evenodd"
       d="m 111,156.36 c 0.24,-2.82 1,-16.82 18.94,-19.12 -21.95,-6.26 -22.29,16.48 -18.94,19.12 z" />
  </g>
  <g
     id="g7658"
     transform="matrix(0.27520707,0,0,0.27520707,456.72902,364.63609)">
    <circle
       r="14"
       cy="151.86218"
       cx="127"
       id="path7660"
       style="opacity:0.75;fill:#b1b1b1;fill-rule:evenodd"
       transform="translate(-3.5,-2)" />
    <path
       inkscape:connector-curvature="0"
       id="path7662"
       sodipodi:nodetypes="ccc"
       style="opacity:0.25;fill:#000000;fill-rule:evenodd"
       d="m 134.69,141.49 c 8.35,2.5 5.9,34.21 -20.31,19.12 9.39,3.97 24.16,-1.67 20.31,-19.12 z" />
    <path
       inkscape:connector-curvature="0"
       id="path7664"
       sodipodi:nodetypes="ccc"
       style="opacity:0.75;fill:#ffffff;fill-rule:evenodd"
       d="m 111,156.36 c 0.24,-2.82 1,-16.82 18.94,-19.12 -21.95,-6.26 -22.29,16.48 -18.94,19.12 z" />
  </g>
  <g
     id="g7666"
     transform="matrix(0.27520707,0,0,0.27520707,333.98556,508.56966)">
    <circle
       r="14"
       cy="151.86218"
       cx="127"
       id="path7668"
       style="opacity:0.75;fill:#b1b1b1;fill-rule:evenodd"
       transform="translate(-3.5,-2)" />
    <path
       inkscape:connector-curvature="0"
       id="path7670"
       sodipodi:nodetypes="ccc"
       style="opacity:0.25;fill:#000000;fill-rule:evenodd"
       d="m 134.69,141.49 c 8.35,2.5 5.9,34.21 -20.31,19.12 9.39,3.97 24.16,-1.67 20.31,-19.12 z" />
    <path
       inkscape:connector-curvature="0"
       id="path7672"
       sodipodi:nodetypes="ccc"
       style="opacity:0.75;fill:#ffffff;fill-rule:evenodd"
       d="m 111,156.36 c 0.24,-2.82 1,-16.82 18.94,-19.12 -21.95,-6.26 -22.29,16.48 -18.94,19.12 z" />
  </g>
</svg>
